<svg xmlns="http://www.w3.org/2000/svg" viewBox="0 0 192 192"><defs><style>.cls-1{fill:#1b1a18;}.cls-2{fill:#d3d8d2;}</style></defs><title>Ресурс 1</title><g id="Слой_2" data-name="Слой 2"><g id="Слой_1-2" data-name="Слой 1"><rect class="cls-1" width="192" height="192" rx="44.11" ry="44.11"/><path id="Эллипс_1_копия_4" data-name="Эллипс 1 копия 4" class="cls-2" d="M67,38.53H93.1c3.56,0,7.39,2.41,8.57,5.52,0,0,30.93,81.52,39,102.6l.1.26a9.5,9.5,0,0,0,8.32,5.57H122.64c-3.56,0-7.36-2.41-8.54-5.51,0,0-30.33-79.84-39-102.45C73,38.88,67,38.53,67,38.53Zm7.29,55A12.27,12.27,0,1,1,62,105.79,12.27,12.27,0,0,1,74.24,93.52Z"/></g></g></svg>