<svg width="186" height="36" viewBox="0 0 186 36" fill="none" xmlns="http://www.w3.org/2000/svg">
<path d="M15 30C23.2843 30 30 23.2843 30 15C30 6.71573 23.2843 0 15 0C6.71573 0 0 6.71573 0 15C0 23.2843 6.71573 30 15 30Z" transform="translate(0 3)" fill="#FFD9FF"/>
<path d="M16.85 16.8235C17.9045 15.8426 18.8769 14.7721 19.7571 13.6234C20.3472 13.7921 20.9766 13.7346 21.5286 13.4615C21.0348 13.0403 20.6061 12.5442 20.2571 11.9902C20.6507 12.1459 21.0738 12.2063 21.4937 12.1668C21.9135 12.1272 22.3189 11.9888 22.6786 11.7622C22.6786 11.7622 20.3714 10.438 20.0429 9.37128C18.8214 5.43552 18.9143 5.08241 18.9143 5.08241C19.6286 3.17706 20.1857 0.999525 19.6286 0.28594C18.9143 -0.626272 18.0786 0.808254 15.9571 2.27956C15.9571 2.27956 14.6857 1.03631 11.2714 1.03631C9.68921 1.12009 8.14269 1.55152 6.73571 2.30163C5.76429 1.56598 5.13571 0.889176 4.36429 0.43307C3.19286 -0.302584 2.63571 0.366861 3.07143 1.90438C3.25 2.52233 3.52143 3.88329 3.78571 5.09712C3.97857 5.96519 3.78571 5.76657 3.07143 8.43699C2.82862 9.08571 2.51722 9.70494 2.14286 10.2835C1.62314 11.0229 0.86257 11.5451 0 11.7548C0.359631 11.9814 0.765046 12.1199 1.18491 12.1594C1.60478 12.199 2.02785 12.1386 2.42143 11.9829C2.07252 12.5369 1.6438 13.033 1.15 13.4542C1.70197 13.7272 2.3314 13.7847 2.92143 13.616C3.5163 14.928 4.5124 16.003 5.75714 16.6763C5.75714 16.6763 7.18571 18.4125 11.3 18.4125C15.0071 18.4125 16.85 16.8235 16.85 16.8235Z" transform="translate(3.81429 8.92712)" fill="#FFE888"/>
<path d="M7.94286 0C7.94286 0 3.77857 4.06817 4.32857 9.60765C4.93571 15.7062 11.25 16.7509 11.25 16.7509C9.58522 16.7256 7.95262 16.2747 6.49889 15.4388C5.04516 14.6029 3.81585 13.4081 2.92143 11.9617C2.92143 11.9617 1.72143 12.4031 1.15 11.7999C1.15 11.7999 2.22857 11.0642 2.42143 10.3286C2.0302 10.4961 1.60524 10.5628 1.18332 10.5231C0.761402 10.4834 0.355243 10.3383 0 10.1005C0.513506 9.96138 0.994498 9.71702 1.41423 9.38206C1.83395 9.0471 2.1838 8.62842 2.44286 8.15105C3.8 5.78225 3.83571 1.86121 7.94286 0V0Z" transform="translate(3.86429 10.5887)" fill="#EABA5C"/>
<path d="M3.03571 1.89534C3.03571 1.89534 2.20714 1.15968 1.26429 0.424027C0.55 -0.142427 0.185714 -0.15714 0 0.475523L0.878572 4.25679L1.70714 3.74919L2.36429 2.63099L3.03571 1.89534ZM13.6214 1.89534C13.6214 1.89534 14.45 1.15968 15.3929 0.424027C16.1071 -0.142427 16.4714 -0.15714 16.6571 0.475523L15.7786 4.29357L14.9786 3.74919L14.3214 2.63099L13.6214 1.89534Z" transform="translate(6.86429 10.0837)" fill="#EABA5C"/>
<path d="M2.93571 12.5993C2.34126 12.7717 1.70607 12.7141 1.15 12.4374C1.6438 12.0162 2.07252 11.5201 2.42143 10.9661C2.02785 11.1218 1.60478 11.1822 1.18491 11.1427C0.765047 11.1031 0.359631 10.9647 0 10.738C0.519744 10.6141 1.00725 10.3757 1.42895 10.0391C1.85066 9.70261 2.19657 9.27596 2.44286 8.78857C3.02143 7.62623 3.78571 5.33834 4.40714 4.17601C5.99286 1.18925 8.06429 0.0122039 11.25 0.0122039C12.693 -0.0719099 14.1284 0.280181 15.3797 1.02517C16.631 1.77017 17.6435 2.87557 18.2929 4.20544C18.9143 5.36777 19.6786 7.65566 20.2571 8.81799C20.5034 9.30539 20.8493 9.73203 21.271 10.0686C21.6928 10.4051 22.1803 10.6435 22.7 10.7675C22.3402 10.9936 21.9348 11.1317 21.515 11.1713C21.0952 11.2108 20.6723 11.1507 20.2786 10.9955C20.6275 11.5495 21.0562 12.0456 21.55 12.4668C20.998 12.7399 20.3686 12.7974 19.7786 12.6287C19.7786 12.6287 16.8643 17.3884 11.3429 17.3884C5.82143 17.3884 2.93571 12.5993 2.93571 12.5993Z" transform="translate(3.85001 9.95126)" stroke="#44392E" stroke-width="0.631" stroke-linecap="round" stroke-linejoin="round"/>
<path d="M13.0818 2.21406L15.4247 0.345497C16.2818 -0.338662 17.1532 -0.0149734 16.8532 1.39013C16.6318 2.31705 15.9318 5.35531 15.9318 5.35531M3.71753 2.12578L1.48896 0.396993C0.631819 -0.287166 -0.23961 0.0365222 0.0603905 1.44162C0.281819 2.36855 0.988962 5.38473 0.988962 5.38473L3.71753 2.12578Z" transform="translate(6.71817 9.02205)" stroke="#44392E" stroke-width="0.534" stroke-linecap="round" stroke-linejoin="round"/>
<path d="M2.92857 6.03237C4.54598 6.03237 5.85714 4.68198 5.85714 3.01618C5.85714 1.35039 4.54598 0 2.92857 0C1.31117 0 0 1.35039 0 3.01618C0 4.68198 1.31117 6.03237 2.92857 6.03237Z" transform="translate(6.78571 13.6123)" fill="white" stroke="#44392E" stroke-width="0.534" stroke-miterlimit="10"/>
<path d="M1.8 3.7077C2.79411 3.7077 3.6 2.8777 3.6 1.85385C3.6 0.829997 2.79411 0 1.8 0C0.805887 0 0 0.829997 0 1.85385C0 2.8777 0.805887 3.7077 1.8 3.7077Z" transform="translate(7.92857 14.6642)" fill="#44392E" stroke="#F930E7" stroke-width="0.548" stroke-miterlimit="10"/>
<path d="M0.855571 1.71109C1.32809 1.71109 1.71114 1.32805 1.71114 0.855545C1.71114 0.383041 1.32809 0 0.855571 0C0.383052 0 0 0.383041 0 0.855545C0 1.32805 0.383052 1.71109 0.855571 1.71109Z" transform="translate(8.51433 15.2513) scale(0.985155 1.01463) rotate(-45.0309)" fill="white"/>
<path d="M2.92857 6.03237C4.54598 6.03237 5.85714 4.68198 5.85714 3.01618C5.85714 1.35039 4.54598 0 2.92857 0C1.31116 0 0 1.35039 0 3.01618C0 4.68198 1.31116 6.03237 2.92857 6.03237Z" transform="translate(17.7643 13.6123)" fill="white" stroke="#44392E" stroke-width="0.534" stroke-miterlimit="10"/>
<path d="M1.8 3.7077C2.79411 3.7077 3.6 2.8777 3.6 1.85385C3.6 0.829997 2.79411 0 1.8 0C0.805888 0 0 0.829997 0 1.85385C0 2.8777 0.805888 3.7077 1.8 3.7077Z" transform="translate(18.9143 14.804)" fill="#44392E" stroke="#F930E7" stroke-width="0.548" stroke-miterlimit="10"/>
<path d="M0.85557 1.71109C1.32809 1.71109 1.71114 1.32805 1.71114 0.855545C1.71114 0.383041 1.32809 0 0.85557 0C0.383051 0 0 0.383041 0 0.855545C0 1.32805 0.383051 1.71109 0.85557 1.71109Z" transform="translate(19.5033 15.3934) scale(0.985155 1.01463) rotate(-45.0309)" fill="white"/>
<path d="M3.30767 0.993134C3.3174 1.47588 3.15477 1.94552 2.85064 2.31299C2.54651 2.68046 2.12202 2.9202 1.65767 2.98676C1.19137 2.92339 0.764255 2.6848 0.458379 2.31681C0.152502 1.94883 -0.0105572 1.47741 0.000530463 0.993134L1.64339 0L3.30767 0.993134Z" transform="translate(13.5709 20.8584)" fill="#44392E"/>
<path d="M2.68571 0.59147C2.51231 0.404528 2.30391 0.255733 2.07311 0.154073C1.8423 0.0524132 1.59388 0 1.34286 0C1.09183 0 0.84341 0.0524132 0.612605 0.154073C0.3818 0.255733 0.173401 0.404528 0 0.59147L1.35714 1.20206L2.68571 0.59147Z" transform="translate(13.8714 22.4372)" fill="#F930E7"/>
<path d="M0 0.451549C0.150017 0.297308 0.330072 0.177567 0.528296 0.100217C0.72652 0.0228665 0.93841 -0.0103364 1.15 0.00279878C1.51614 -0.0107062 1.876 0.103333 2.17143 0.326487" transform="translate(14.0786 22.5182)" stroke="#44392E" stroke-width="0.449" stroke-miterlimit="10" stroke-linecap="round"/>
<path d="M0 0H0.242857" transform="translate(15.1071 21.3734)" stroke="white" stroke-width="1.71" stroke-linecap="round" stroke-linejoin="round"/>
<path d="M4.51346 2.08936C4.13129 2.41645 3.66444 2.62106 3.1706 2.67789C2.67841 2.73884 2.17925 2.6912 1.70632 2.53811C1.21413 2.41326 0.761484 2.1599 0.392032 1.80246C0.199027 1.59934 0.065368 1.34442 0.00631702 1.0668C-0.00210567 0.932071 -0.00210567 0.796922 0.00631702 0.662192V0.30172C0.00439218 0.264031 0.00970642 0.226323 0.0219546 0.190753C0.0342027 0.155183 0.0531438 0.122452 0.0776941 0.0944338C0.102244 0.0664155 0.131921 0.043661 0.165023 0.027474C0.198126 0.011287 0.234005 0.00198469 0.270603 0.000101384C0.345194 -0.00191464 0.41759 0.026203 0.472316 0.0784421C0.527042 0.130681 0.559755 0.202897 0.56346 0.279651V0.640122C0.552423 0.745259 0.552423 0.851316 0.56346 0.956453C0.591812 1.15167 0.676416 1.33363 0.806318 1.47877C1.09972 1.8139 1.47079 2.067 1.88489 2.21442C2.30113 2.38331 2.75067 2.44673 3.19568 2.39936C3.64068 2.352 4.06813 2.19522 4.44203 1.94223C4.46283 1.9236 4.48947 1.91334 4.51703 1.91334C4.5446 1.91334 4.57123 1.9236 4.59203 1.94223C4.59898 1.95703 4.60238 1.97333 4.60196 1.98976C4.60154 2.00619 4.59731 2.02228 4.58962 2.03668C4.58193 2.05109 4.571 2.06338 4.55775 2.07255C4.5445 2.08171 4.52931 2.08748 4.51346 2.08936V2.08936Z" transform="translate(14.9937 19.3871)" fill="#44392E"/>
<path d="M0.141153 2.07455C0.485709 2.35905 0.913825 2.51467 1.35544 2.51594C1.79757 2.53056 2.23783 2.45039 2.6483 2.28053C3.04352 2.13579 3.39212 1.88117 3.65544 1.54487C3.76172 1.39544 3.81924 1.21515 3.81972 1.02992V0.294262C3.81877 0.256582 3.82504 0.219078 3.83817 0.183894C3.8513 0.14871 3.87103 0.116534 3.89624 0.0892067C3.92144 0.0618794 3.95163 0.0399361 3.98508 0.0246295C4.01852 0.00932286 4.05457 0.000953778 4.09115 0C4.16517 0.00177002 4.23579 0.032347 4.2888 0.0855781C4.34181 0.138809 4.37328 0.210743 4.37687 0.286905V1.02256C4.35852 1.31769 4.24831 1.59888 4.06258 1.82442C3.72393 2.23186 3.27704 2.52847 2.77687 2.67778C2.3165 2.83209 1.83022 2.88718 1.3483 2.83963C0.853753 2.79733 0.386661 2.58783 0.0197248 2.24375C0.00568057 2.22427 -0.0012397 2.20032 0.000182631 2.17611C0.00160496 2.1519 0.0112788 2.12898 0.0274999 2.1114C0.0437211 2.09381 0.0654484 2.08268 0.0888532 2.07998C0.112258 2.07728 0.135839 2.08317 0.155439 2.09661L0.141153 2.07455Z" transform="translate(11.1374 19.2474)" fill="#44392E"/>
<path d="M3.3 0C3.2617 0.423413 3.07131 0.816852 2.76612 1.10326C2.46092 1.38967 2.06289 1.54843 1.65 1.54843C1.23711 1.54843 0.839084 1.38967 0.533885 1.10326C0.228685 0.816852 0.0382949 0.423413 0 0" transform="translate(13.5786 22.087)" stroke="#44392E" stroke-width="0.679" stroke-miterlimit="10" stroke-linecap="round"/>
<path d="M6.72857 0.868825C6.70723 0.807237 6.70329 0.740679 6.71719 0.676875C6.7311 0.613071 6.76229 0.554637 6.80714 0.508354C6.98934 0.335679 7.20334 0.202428 7.43646 0.116499C7.66958 0.0305705 7.91708 -0.00628763 8.16429 0.00810853C8.40013 -0.0159688 8.63823 0.0137331 8.86167 0.0951038C9.08511 0.176475 9.28842 0.307517 9.45714 0.478927C9.49901 0.52866 9.52654 0.589455 9.53664 0.65445C9.54674 0.719445 9.53899 0.786051 9.51429 0.846755C9.48158 0.927139 9.4272 0.99619 9.35757 1.04573C9.28795 1.09528 9.206 1.12324 9.12143 1.1263C8.98285 1.12184 8.84532 1.15235 8.72082 1.21518C8.59632 1.27801 8.48863 1.37125 8.40714 1.48677L8.36429 1.53827C8.33017 1.57639 8.28876 1.60681 8.24266 1.62762C8.19655 1.64843 8.14676 1.65917 8.09643 1.65917C8.04609 1.65917 7.99631 1.64843 7.9502 1.62762C7.9041 1.60681 7.86269 1.57639 7.82857 1.53827C7.82857 1.53827 7.67143 1.25137 7.11429 1.20723C7.02947 1.19727 6.94905 1.16305 6.88214 1.10844C6.81524 1.05383 6.76451 0.981021 6.73572 0.898252L6.72857 0.868825ZM5.93571 1.5162C4.85477 1.26438 3.72962 1.29728 2.66429 1.61184C1.59007 1.94986 0.653785 2.64271 0 3.58339C0.612002 2.58579 1.52562 1.82321 2.6 1.41321C3.69138 1.02321 4.85994 0.919545 6 1.11159C6.05246 1.12066 6.09952 1.15016 6.13143 1.19398C6.16334 1.23781 6.17767 1.2926 6.17143 1.347C6.16802 1.37395 6.15928 1.39989 6.14574 1.42321C6.13221 1.44654 6.11417 1.46676 6.09275 1.48262C6.07132 1.49848 6.04697 1.50964 6.02118 1.51542C5.9954 1.52119 5.96874 1.52146 5.94286 1.5162H5.93571Z" transform="translate(7.10001 18.6581)" fill="#44392E"/>
<path d="M3.27857 0.99872C2.54277 0.914597 1.79899 1.04993 1.13571 1.38862C0.823632 1.60245 0.56042 1.8836 0.364315 2.2126C0.168209 2.5416 0.0439003 2.91057 0 3.29396C0.0350186 2.89814 0.131483 2.51068 0.285714 2.14634C0.444632 1.7806 0.69025 1.46187 1 1.21942C1.67851 0.792177 2.46208 0.5751 3.25714 0.59411C3.28271 0.592079 3.3084 0.595521 3.33261 0.60422C3.35682 0.612918 3.37901 0.626684 3.3978 0.644652C3.41659 0.662619 3.43156 0.6844 3.44177 0.70862C3.45199 0.73284 3.45722 0.758975 3.45714 0.785381C3.45913 0.838812 3.44086 0.890943 3.4062 0.930755C3.37155 0.970568 3.32322 0.99494 3.27143 0.99872H3.27857ZM7.53572 0.0938648C8.67577 -0.0981806 9.84433 0.00548373 10.9357 0.395483C12.0112 0.803548 12.9253 1.56659 13.5357 2.56567C12.885 1.62181 11.9476 0.92811 10.8714 0.59411C9.80853 0.27954 8.68569 0.246644 7.60714 0.498476C7.57995 0.509647 7.55071 0.514534 7.52149 0.512793C7.49226 0.511053 7.46377 0.502725 7.43801 0.4884C7.41225 0.474074 7.38986 0.4541 7.37242 0.429887C7.35497 0.405674 7.34291 0.377811 7.33706 0.348268C7.33122 0.318726 7.33174 0.288223 7.3386 0.258912C7.34546 0.229601 7.35848 0.202196 7.37674 0.178635C7.395 0.155073 7.41807 0.135928 7.4443 0.122552C7.47054 0.109176 7.49931 0.101895 7.52857 0.101221L7.53572 0.0938648Z" transform="translate(9.79286 19.6758)" fill="#44392E"/>
<path d="M0.22156 0.0220702C1.01652 0.00389026 1.79987 0.220905 2.4787 0.647377C2.79091 0.887233 3.03708 1.20669 3.19299 1.5743C3.34722 1.93864 3.44369 2.3261 3.4787 2.72192C3.4348 2.33853 3.31049 1.96956 3.11439 1.64056C2.91828 1.31156 2.65507 1.03041 2.34299 0.816577C1.6801 0.476691 0.935974 0.341296 0.200133 0.42668C0.172925 0.42573 0.146165 0.419267 0.121385 0.407659C0.0966049 0.39605 0.07429 0.379525 0.0557152 0.359028C0.0371404 0.338531 0.0226709 0.314465 0.0131336 0.288204C0.00359631 0.261944 -0.000822031 0.234004 0.000132314 0.205984C-0.000828388 0.179287 0.00345035 0.152666 0.0127113 0.127712C0.0219722 0.102758 0.0360249 0.0799841 0.0540299 0.0607536C0.0720349 0.0415231 0.0936217 0.0262313 0.117498 0.0157925C0.141375 0.0053537 0.167051 -1.82827e-05 0.19299 4.67476e-08L0.22156 0.0220702Z" transform="translate(17.1427 20.2479)" fill="#44392E"/>
<path d="M14.7539 20.4453C14.582 22.2656 13.9102 23.6875 12.7383 24.7109C11.5664 25.7266 10.0078 26.2344 8.0625 26.2344C6.70312 26.2344 5.50391 25.9141 4.46484 25.2734C3.43359 24.625 2.63672 23.707 2.07422 22.5195C1.51172 21.332 1.21875 19.9531 1.19531 18.3828V16.7891C1.19531 15.1797 1.48047 13.7617 2.05078 12.5352C2.62109 11.3086 3.4375 10.3633 4.5 9.69922C5.57031 9.03516 6.80469 8.70312 8.20312 8.70312C10.0859 8.70312 11.6016 9.21484 12.75 10.2383C13.8984 11.2617 14.5664 12.707 14.7539 14.5742H11.8008C11.6602 13.3477 11.3008 12.4648 10.7227 11.9258C10.1523 11.3789 9.3125 11.1055 8.20312 11.1055C6.91406 11.1055 5.92188 11.5781 5.22656 12.5234C4.53906 13.4609 4.1875 14.8398 4.17188 16.6602V18.1719C4.17188 20.0156 4.5 21.4219 5.15625 22.3906C5.82031 23.3594 6.78906 23.8438 8.0625 23.8438C9.22656 23.8438 10.1016 23.582 10.6875 23.0586C11.2734 22.5352 11.6445 21.6641 11.8008 20.4453H14.7539ZM23.7773 15.9219C23.4023 15.8594 23.0156 15.8281 22.6172 15.8281C21.3125 15.8281 20.4336 16.3281 19.9805 17.3281V26H17.1328V13.3203H19.8516L19.9219 14.7383C20.6094 13.6367 21.5625 13.0859 22.7812 13.0859C23.1875 13.0859 23.5234 13.1406 23.7891 13.25L23.7773 15.9219ZM30.2227 21.9219L32.8008 13.3203H35.8359L30.7969 27.9219C30.0234 30.0547 28.7109 31.1211 26.8594 31.1211C26.4453 31.1211 25.9883 31.0508 25.4883 30.9102V28.707L26.0273 28.7422C26.7461 28.7422 27.2852 28.6094 27.6445 28.3438C28.0117 28.0859 28.3008 27.6484 28.5117 27.0312L28.9219 25.9414L24.4688 13.3203H27.5391L30.2227 21.9219ZM48.5859 19.7891C48.5859 21.75 48.1406 23.3164 47.25 24.4883C46.3594 25.6523 45.1641 26.2344 43.6641 26.2344C42.2734 26.2344 41.1602 25.7773 40.3242 24.8633V30.875H37.4766V13.3203H40.1016L40.2188 14.6094C41.0547 13.5938 42.1914 13.0859 43.6289 13.0859C45.1758 13.0859 46.3867 13.6641 47.2617 14.8203C48.1445 15.9688 48.5859 17.5664 48.5859 19.6133V19.7891ZM45.75 19.543C45.75 18.2773 45.4961 17.2734 44.9883 16.5312C44.4883 15.7891 43.7695 15.418 42.832 15.418C41.668 15.418 40.832 15.8984 40.3242 16.8594V22.4844C40.8398 23.4688 41.6836 23.9609 42.8555 23.9609C43.7617 23.9609 44.4688 23.5977 44.9766 22.8711C45.4922 22.1367 45.75 21.0273 45.75 19.543ZM54.5742 10.2383V13.3203H56.8125V15.4297H54.5742V22.5078C54.5742 22.9922 54.668 23.3438 54.8555 23.5625C55.0508 23.7734 55.3945 23.8789 55.8867 23.8789C56.2148 23.8789 56.5469 23.8398 56.8828 23.7617V25.9648C56.2344 26.1445 55.6094 26.2344 55.0078 26.2344C52.8203 26.2344 51.7266 25.0273 51.7266 22.6133V15.4297H49.6406V13.3203H51.7266V10.2383H54.5742ZM58.1133 19.543C58.1133 18.3008 58.3594 17.1836 58.8516 16.1914C59.3438 15.1914 60.0352 14.4258 60.9258 13.8945C61.8164 13.3555 62.8398 13.0859 63.9961 13.0859C65.707 13.0859 67.0938 13.6367 68.1562 14.7383C69.2266 15.8398 69.8047 17.3008 69.8906 19.1211L69.9023 19.7891C69.9023 21.0391 69.6602 22.1562 69.1758 23.1406C68.6992 24.125 68.0117 24.8867 67.1133 25.4258C66.2227 25.9648 65.1914 26.2344 64.0195 26.2344C62.2305 26.2344 60.7969 25.6406 59.7188 24.4531C58.6484 23.2578 58.1133 21.668 58.1133 19.6836V19.543ZM60.9609 19.7891C60.9609 21.0938 61.2305 22.1172 61.7695 22.8594C62.3086 23.5938 63.0586 23.9609 64.0195 23.9609C64.9805 23.9609 65.7266 23.5859 66.2578 22.8359C66.7969 22.0859 67.0664 20.9883 67.0664 19.543C67.0664 18.2617 66.7891 17.2461 66.2344 16.4961C65.6875 15.7461 64.9414 15.3711 63.9961 15.3711C63.0664 15.3711 62.3281 15.7422 61.7812 16.4844C61.2344 17.2188 60.9609 18.3203 60.9609 19.7891ZM77.4844 18.6289L75.5508 20.6797V26H72.5859V8.9375H75.5508V16.9414L77.1914 14.9141L82.1836 8.9375H85.7695L79.4297 16.4961L86.1328 26H82.6172L77.4844 18.6289ZM90.4805 26H87.6328V13.3203H90.4805V26ZM87.457 10.0273C87.457 9.58984 87.5938 9.22656 87.8672 8.9375C88.1484 8.64844 88.5469 8.50391 89.0625 8.50391C89.5781 8.50391 89.9766 8.64844 90.2578 8.9375C90.5391 9.22656 90.6797 9.58984 90.6797 10.0273C90.6797 10.457 90.5391 10.8164 90.2578 11.1055C89.9766 11.3867 89.5781 11.5273 89.0625 11.5273C88.5469 11.5273 88.1484 11.3867 87.8672 11.1055C87.5938 10.8164 87.457 10.457 87.457 10.0273ZM97.1602 10.2383V13.3203H99.3984V15.4297H97.1602V22.5078C97.1602 22.9922 97.2539 23.3438 97.4414 23.5625C97.6367 23.7734 97.9805 23.8789 98.4727 23.8789C98.8008 23.8789 99.1328 23.8398 99.4688 23.7617V25.9648C98.8203 26.1445 98.1953 26.2344 97.5938 26.2344C95.4062 26.2344 94.3125 25.0273 94.3125 22.6133V15.4297H92.2266V13.3203H94.3125V10.2383H97.1602ZM105.152 10.2383V13.3203H107.391V15.4297H105.152V22.5078C105.152 22.9922 105.246 23.3438 105.434 23.5625C105.629 23.7734 105.973 23.8789 106.465 23.8789C106.793 23.8789 107.125 23.8398 107.461 23.7617V25.9648C106.812 26.1445 106.188 26.2344 105.586 26.2344C103.398 26.2344 102.305 25.0273 102.305 22.6133V15.4297H100.219V13.3203H102.305V10.2383H105.152ZM112.605 26H109.758V13.3203H112.605V26ZM109.582 10.0273C109.582 9.58984 109.719 9.22656 109.992 8.9375C110.273 8.64844 110.672 8.50391 111.188 8.50391C111.703 8.50391 112.102 8.64844 112.383 8.9375C112.664 9.22656 112.805 9.58984 112.805 10.0273C112.805 10.457 112.664 10.8164 112.383 11.1055C112.102 11.3867 111.703 11.5273 111.188 11.5273C110.672 11.5273 110.273 11.3867 109.992 11.1055C109.719 10.8164 109.582 10.457 109.582 10.0273ZM121.301 26.2344C119.496 26.2344 118.031 25.668 116.906 24.5352C115.789 23.3945 115.23 21.8789 115.23 19.9883V19.6367C115.23 18.3711 115.473 17.2422 115.957 16.25C116.449 15.25 117.137 14.4727 118.02 13.918C118.902 13.3633 119.887 13.0859 120.973 13.0859C122.699 13.0859 124.031 13.6367 124.969 14.7383C125.914 15.8398 126.387 17.3984 126.387 19.4141V20.5625H118.102C118.188 21.6094 118.535 22.4375 119.145 23.0469C119.762 23.6562 120.535 23.9609 121.465 23.9609C122.77 23.9609 123.832 23.4336 124.652 22.3789L126.188 23.8438C125.68 24.6016 125 25.1914 124.148 25.6133C123.305 26.0273 122.355 26.2344 121.301 26.2344ZM120.961 15.3711C120.18 15.3711 119.547 15.6445 119.062 16.1914C118.586 16.7383 118.281 17.5 118.148 18.4766H123.574V18.2656C123.512 17.3125 123.258 16.5938 122.812 16.1094C122.367 15.6172 121.75 15.3711 120.961 15.3711ZM135.715 22.5547C135.715 22.0469 135.504 21.6602 135.082 21.3945C134.668 21.1289 133.977 20.8945 133.008 20.6914C132.039 20.4883 131.23 20.2305 130.582 19.918C129.16 19.2305 128.449 18.2344 128.449 16.9297C128.449 15.8359 128.91 14.9219 129.832 14.1875C130.754 13.4531 131.926 13.0859 133.348 13.0859C134.863 13.0859 136.086 13.4609 137.016 14.2109C137.953 14.9609 138.422 15.9336 138.422 17.1289H135.574C135.574 16.582 135.371 16.1289 134.965 15.7695C134.559 15.4023 134.02 15.2188 133.348 15.2188C132.723 15.2188 132.211 15.3633 131.812 15.6523C131.422 15.9414 131.227 16.3281 131.227 16.8125C131.227 17.25 131.41 17.5898 131.777 17.832C132.145 18.0742 132.887 18.3203 134.004 18.5703C135.121 18.8125 135.996 19.1055 136.629 19.4492C137.27 19.7852 137.742 20.1914 138.047 20.668C138.359 21.1445 138.516 21.7227 138.516 22.4023C138.516 23.543 138.043 24.4688 137.098 25.1797C136.152 25.8828 134.914 26.2344 133.383 26.2344C132.344 26.2344 131.418 26.0469 130.605 25.6719C129.793 25.2969 129.16 24.7812 128.707 24.125C128.254 23.4688 128.027 22.7617 128.027 22.0039H130.793C130.832 22.6758 131.086 23.1953 131.555 23.5625C132.023 23.9219 132.645 24.1016 133.418 24.1016C134.168 24.1016 134.738 23.9609 135.129 23.6797C135.52 23.3906 135.715 23.0156 135.715 22.5547Z" transform="translate(40)" fill="white"/>
</svg>
