<svg xmlns="http://www.w3.org/2000/svg" xmlns:xlink="http://www.w3.org/1999/xlink" preserveAspectRatio="xMidYMid" width="205.656" height="23" viewBox="0 0 205.656 23">
  <defs>
    <style>
      .cls-1 {
        fill: #d3d8d2;
        fill-rule: evenodd;
      }

      .cls-2 {
        fill: #d94d12;
      }

      .cls-3 {
        fill: #e48d50;
      }
    </style>
  </defs>
  <g>
    <path d="M205.004,15.969 C204.579,17.033 203.982,17.949 203.213,18.717 C202.444,19.485 201.519,20.081 200.437,20.505 C199.356,20.929 198.158,21.141 196.844,21.141 L190.211,21.141 L190.211,3.789 L196.844,3.789 C198.158,3.789 199.356,4.003 200.437,4.431 C201.519,4.859 202.444,5.455 203.213,6.219 C203.982,6.983 204.579,7.897 205.004,8.961 C205.428,10.025 205.641,11.193 205.641,12.465 C205.641,13.737 205.428,14.905 205.004,15.969 ZM201.951,9.903 C201.695,9.147 201.331,8.507 200.858,7.983 C200.385,7.459 199.810,7.057 199.133,6.777 C198.456,6.497 197.693,6.357 196.844,6.357 L193.467,6.357 L193.467,18.573 L196.844,18.573 C197.693,18.573 198.456,18.433 199.133,18.153 C199.810,17.873 200.385,17.471 200.858,16.947 C201.331,16.423 201.695,15.783 201.951,15.027 C202.208,14.271 202.336,13.417 202.336,12.465 C202.336,11.513 202.208,10.659 201.951,9.903 ZM185.235,18.813 C184.466,19.605 183.541,20.223 182.459,20.667 C181.378,21.111 180.180,21.333 178.866,21.333 C177.552,21.333 176.353,21.111 175.267,20.667 C174.181,20.223 173.252,19.605 172.479,18.813 C171.706,18.021 171.107,17.083 170.683,15.999 C170.258,14.915 170.046,13.737 170.046,12.465 C170.046,11.193 170.258,10.015 170.683,8.931 C171.107,7.847 171.706,6.909 172.479,6.117 C173.252,5.325 174.181,4.707 175.267,4.263 C176.353,3.819 177.552,3.597 178.866,3.597 C180.180,3.597 181.378,3.821 182.459,4.269 C183.541,4.717 184.466,5.335 185.235,6.123 C186.005,6.911 186.601,7.847 187.026,8.931 C187.451,10.015 187.663,11.193 187.663,12.465 C187.663,13.737 187.451,14.915 187.026,15.999 C186.601,17.083 186.005,18.021 185.235,18.813 ZM183.968,9.903 C183.715,9.147 183.353,8.505 182.880,7.977 C182.407,7.449 181.833,7.045 181.156,6.765 C180.478,6.485 179.715,6.345 178.866,6.345 C178.017,6.345 177.252,6.485 176.571,6.765 C175.890,7.045 175.311,7.449 174.835,7.977 C174.358,8.505 173.991,9.147 173.735,9.903 C173.478,10.659 173.350,11.513 173.350,12.465 C173.350,13.417 173.478,14.271 173.735,15.027 C173.991,15.783 174.358,16.423 174.835,16.947 C175.311,17.471 175.890,17.873 176.571,18.153 C177.252,18.433 178.017,18.573 178.866,18.573 C179.715,18.573 180.478,18.433 181.156,18.153 C181.833,17.873 182.407,17.471 182.880,16.947 C183.353,16.423 183.715,15.783 183.968,15.027 C184.220,14.271 184.346,13.417 184.346,12.465 C184.346,11.513 184.220,10.659 183.968,9.903 ZM166.020,18.813 C165.251,19.605 164.325,20.223 163.244,20.667 C162.162,21.111 160.965,21.333 159.651,21.333 C158.337,21.333 157.137,21.111 156.052,20.667 C154.966,20.223 154.037,19.605 153.264,18.813 C152.490,18.021 151.891,17.083 151.467,15.999 C151.042,14.915 150.830,13.737 150.830,12.465 C150.830,11.193 151.042,10.015 151.467,8.931 C151.891,7.847 152.490,6.909 153.264,6.117 C154.037,5.325 154.966,4.707 156.052,4.263 C157.137,3.819 158.337,3.597 159.651,3.597 C160.965,3.597 162.162,3.821 163.244,4.269 C164.325,4.717 165.251,5.335 166.020,6.123 C166.789,6.911 167.386,7.847 167.810,8.931 C168.235,10.015 168.447,11.193 168.447,12.465 C168.447,13.737 168.235,14.915 167.810,15.999 C167.386,17.083 166.789,18.021 166.020,18.813 ZM164.752,9.903 C164.500,9.147 164.137,8.505 163.664,7.977 C163.192,7.449 162.617,7.045 161.940,6.765 C161.263,6.485 160.500,6.345 159.651,6.345 C158.801,6.345 158.036,6.485 157.355,6.765 C156.674,7.045 156.095,7.449 155.619,7.977 C155.142,8.505 154.776,9.147 154.519,9.903 C154.263,10.659 154.135,11.513 154.135,12.465 C154.135,13.417 154.263,14.271 154.519,15.027 C154.776,15.783 155.142,16.423 155.619,16.947 C156.095,17.471 156.674,17.873 157.355,18.153 C158.036,18.433 158.801,18.573 159.651,18.573 C160.500,18.573 161.263,18.433 161.940,18.153 C162.617,17.873 163.192,17.471 163.664,16.947 C164.137,16.423 164.500,15.783 164.752,15.027 C165.004,14.271 165.131,13.417 165.131,12.465 C165.131,11.513 165.004,10.659 164.752,9.903 ZM145.861,20.877 C145.320,21.029 144.741,21.143 144.125,21.219 C143.508,21.295 142.843,21.333 142.130,21.333 C140.864,21.333 139.698,21.113 138.633,20.673 C137.567,20.233 136.646,19.621 135.869,18.837 C135.092,18.053 134.485,17.117 134.048,16.029 C133.611,14.941 133.393,13.753 133.393,12.465 C133.393,11.161 133.605,9.965 134.030,8.877 C134.455,7.789 135.058,6.853 135.839,6.069 C136.620,5.285 137.567,4.677 138.681,4.245 C139.794,3.813 141.044,3.597 142.430,3.597 C143.848,3.597 145.076,3.807 146.113,4.227 C147.151,4.647 148.030,5.193 148.751,5.865 L147.814,7.329 C147.629,7.625 147.385,7.773 147.081,7.773 C146.889,7.773 146.692,7.709 146.492,7.581 C146.235,7.429 145.973,7.277 145.705,7.125 C145.436,6.973 145.140,6.841 144.816,6.729 C144.491,6.617 144.126,6.525 143.722,6.453 C143.317,6.381 142.851,6.345 142.322,6.345 C141.465,6.345 140.689,6.489 139.997,6.777 C139.304,7.065 138.713,7.477 138.224,8.013 C137.735,8.549 137.359,9.193 137.094,9.945 C136.830,10.697 136.698,11.537 136.698,12.465 C136.698,13.465 136.838,14.355 137.118,15.135 C137.399,15.915 137.791,16.573 138.296,17.109 C138.801,17.645 139.402,18.055 140.099,18.339 C140.796,18.623 141.557,18.765 142.382,18.765 C143.111,18.765 143.746,18.699 144.287,18.567 C144.828,18.435 145.342,18.253 145.831,18.021 L145.831,14.865 L143.656,14.865 C143.447,14.865 143.283,14.807 143.163,14.691 C143.043,14.575 142.983,14.433 142.983,14.265 L142.983,12.441 L148.763,12.441 L148.763,19.461 C148.323,19.781 147.864,20.059 147.387,20.295 C146.910,20.531 146.402,20.725 145.861,20.877 ZM125.161,10.125 C125.538,10.317 125.966,10.489 126.447,10.641 C126.928,10.793 127.418,10.955 127.919,11.127 C128.420,11.299 128.911,11.499 129.391,11.727 C129.872,11.955 130.301,12.243 130.677,12.591 C131.054,12.939 131.356,13.365 131.585,13.869 C131.813,14.373 131.927,14.985 131.927,15.705 C131.927,16.489 131.793,17.223 131.524,17.907 C131.256,18.591 130.864,19.187 130.347,19.695 C129.830,20.203 129.199,20.603 128.454,20.895 C127.709,21.187 126.856,21.333 125.894,21.333 C125.342,21.333 124.797,21.279 124.260,21.171 C123.723,21.063 123.209,20.909 122.716,20.709 C122.223,20.509 121.762,20.269 121.334,19.989 C120.905,19.709 120.523,19.397 120.186,19.053 L121.124,17.505 C121.212,17.393 121.318,17.299 121.442,17.223 C121.566,17.147 121.704,17.109 121.857,17.109 C122.057,17.109 122.273,17.191 122.505,17.355 C122.738,17.519 123.012,17.701 123.329,17.901 C123.645,18.101 124.018,18.283 124.446,18.447 C124.875,18.611 125.390,18.693 125.991,18.693 C126.912,18.693 127.625,18.475 128.130,18.039 C128.634,17.603 128.887,16.977 128.887,16.161 C128.887,15.705 128.773,15.333 128.544,15.045 C128.316,14.757 128.013,14.515 127.637,14.319 C127.260,14.123 126.832,13.957 126.351,13.821 C125.870,13.685 125.382,13.537 124.885,13.377 C124.388,13.217 123.899,13.025 123.419,12.801 C122.938,12.577 122.509,12.285 122.133,11.925 C121.756,11.565 121.454,11.115 121.226,10.575 C120.997,10.035 120.883,9.369 120.883,8.577 C120.883,7.945 121.009,7.329 121.262,6.729 C121.514,6.129 121.882,5.597 122.367,5.133 C122.852,4.669 123.447,4.297 124.152,4.017 C124.857,3.737 125.662,3.597 126.567,3.597 C127.593,3.597 128.538,3.757 129.403,4.077 C130.269,4.397 131.006,4.845 131.615,5.421 L130.821,6.945 C130.733,7.121 130.631,7.245 130.515,7.317 C130.399,7.389 130.261,7.425 130.100,7.425 C129.940,7.425 129.760,7.363 129.560,7.239 C129.359,7.115 129.123,6.977 128.851,6.825 C128.578,6.673 128.260,6.535 127.895,6.411 C127.531,6.287 127.100,6.225 126.603,6.225 C126.155,6.225 125.764,6.279 125.432,6.387 C125.099,6.495 124.819,6.645 124.590,6.837 C124.362,7.029 124.192,7.259 124.080,7.527 C123.967,7.795 123.912,8.089 123.912,8.409 C123.912,8.817 124.026,9.157 124.254,9.429 C124.482,9.701 124.785,9.933 125.161,10.125 ZM116.545,18.717 C115.776,19.485 114.851,20.081 113.769,20.505 C112.687,20.929 111.490,21.141 110.176,21.141 L103.542,21.141 L103.542,3.789 L110.176,3.789 C111.490,3.789 112.687,4.003 113.769,4.431 C114.851,4.859 115.776,5.455 116.545,6.219 C117.314,6.983 117.911,7.897 118.336,8.961 C118.760,10.025 118.972,11.193 118.972,12.465 C118.972,13.737 118.760,14.905 118.336,15.969 C117.911,17.033 117.314,17.949 116.545,18.717 ZM115.283,9.903 C115.027,9.147 114.662,8.507 114.190,7.983 C113.717,7.459 113.142,7.057 112.465,6.777 C111.788,6.497 111.025,6.357 110.176,6.357 L106.799,6.357 L106.799,18.573 L110.176,18.573 C111.025,18.573 111.788,18.433 112.465,18.153 C113.142,17.873 113.717,17.471 114.190,16.947 C114.662,16.423 115.027,15.783 115.283,15.027 C115.539,14.271 115.668,13.417 115.668,12.465 C115.668,11.513 115.539,10.659 115.283,9.903 ZM97.726,21.021 C97.558,20.941 97.393,20.797 97.233,20.589 L88.148,9.033 C88.172,9.289 88.190,9.543 88.202,9.795 C88.214,10.047 88.220,10.277 88.220,10.485 L88.220,21.141 L85.372,21.141 L85.372,3.789 L87.067,3.789 C87.211,3.789 87.331,3.795 87.427,3.807 C87.523,3.819 87.609,3.843 87.686,3.879 C87.762,3.915 87.836,3.967 87.908,4.035 C87.980,4.103 88.060,4.193 88.148,4.305 L97.269,15.909 C97.237,15.629 97.215,15.355 97.203,15.087 C97.191,14.819 97.185,14.569 97.185,14.337 L97.185,3.789 L100.033,3.789 L100.033,21.141 L98.363,21.141 C98.106,21.141 97.894,21.101 97.726,21.021 ZM80.145,19.311 C79.520,19.947 78.763,20.443 77.874,20.799 C76.984,21.155 75.983,21.333 74.869,21.333 C73.756,21.333 72.754,21.155 71.865,20.799 C70.976,20.443 70.220,19.947 69.600,19.311 C68.979,18.675 68.502,17.919 68.170,17.043 C67.837,16.167 67.671,15.213 67.671,14.181 L67.671,3.789 L70.904,3.789 L70.904,14.169 C70.904,14.833 70.994,15.433 71.174,15.969 C71.354,16.505 71.613,16.963 71.949,17.343 C72.285,17.723 72.700,18.017 73.193,18.225 C73.686,18.433 74.244,18.537 74.869,18.537 C75.494,18.537 76.053,18.433 76.546,18.225 C77.038,18.017 77.455,17.725 77.795,17.349 C78.136,16.973 78.396,16.517 78.577,15.981 C78.757,15.445 78.847,14.845 78.847,14.181 L78.847,3.789 L82.080,3.789 L82.080,14.181 C82.080,15.213 81.913,16.167 81.581,17.043 C81.248,17.919 80.770,18.675 80.145,19.311 ZM62.900,18.813 C62.131,19.605 61.206,20.223 60.124,20.667 C59.042,21.111 57.845,21.333 56.531,21.333 C55.217,21.333 54.017,21.111 52.932,20.667 C51.846,20.223 50.917,19.605 50.144,18.813 C49.370,18.021 48.772,17.083 48.347,15.999 C47.922,14.915 47.710,13.737 47.710,12.465 C47.710,11.193 47.922,10.015 48.347,8.931 C48.772,7.847 49.370,6.909 50.144,6.117 C50.917,5.325 51.846,4.707 52.932,4.263 C54.017,3.819 55.217,3.597 56.531,3.597 C57.845,3.597 59.042,3.821 60.124,4.269 C61.206,4.717 62.131,5.335 62.900,6.123 C63.669,6.911 64.266,7.847 64.691,8.931 C65.115,10.015 65.328,11.193 65.328,12.465 C65.328,13.737 65.115,14.915 64.691,15.999 C64.266,17.083 63.669,18.021 62.900,18.813 ZM61.632,9.903 C61.380,9.147 61.017,8.505 60.545,7.977 C60.072,7.449 59.497,7.045 58.820,6.765 C58.143,6.485 57.380,6.345 56.531,6.345 C55.682,6.345 54.916,6.485 54.236,6.765 C53.555,7.045 52.976,7.449 52.499,7.977 C52.022,8.505 51.656,9.147 51.399,9.903 C51.143,10.659 51.015,11.513 51.015,12.465 C51.015,13.417 51.143,14.271 51.399,15.027 C51.656,15.783 52.022,16.423 52.499,16.947 C52.976,17.471 53.555,17.873 54.236,18.153 C54.916,18.433 55.682,18.573 56.531,18.573 C57.380,18.573 58.143,18.433 58.820,18.153 C59.497,17.873 60.072,17.471 60.545,16.947 C61.017,16.423 61.380,15.783 61.632,15.027 C61.885,14.271 62.011,13.417 62.011,12.465 C62.011,11.513 61.885,10.659 61.632,9.903 ZM39.418,10.125 C39.795,10.317 40.223,10.489 40.704,10.641 C41.185,10.793 41.675,10.955 42.176,11.127 C42.677,11.299 43.168,11.499 43.648,11.727 C44.129,11.955 44.558,12.243 44.934,12.591 C45.311,12.939 45.613,13.365 45.842,13.869 C46.070,14.373 46.184,14.985 46.184,15.705 C46.184,16.489 46.050,17.223 45.781,17.907 C45.513,18.591 45.120,19.187 44.604,19.695 C44.087,20.203 43.456,20.603 42.711,20.895 C41.966,21.187 41.113,21.333 40.151,21.333 C39.599,21.333 39.054,21.279 38.517,21.171 C37.980,21.063 37.465,20.909 36.973,20.709 C36.480,20.509 36.019,20.269 35.591,19.989 C35.162,19.709 34.780,19.397 34.443,19.053 L35.380,17.505 C35.469,17.393 35.575,17.299 35.699,17.223 C35.823,17.147 35.961,17.109 36.114,17.109 C36.314,17.109 36.530,17.191 36.762,17.355 C36.995,17.519 37.269,17.701 37.586,17.901 C37.902,18.101 38.275,18.283 38.703,18.447 C39.132,18.611 39.647,18.693 40.247,18.693 C41.169,18.693 41.882,18.475 42.387,18.039 C42.891,17.603 43.144,16.977 43.144,16.161 C43.144,15.705 43.029,15.333 42.801,15.045 C42.573,14.757 42.270,14.515 41.894,14.319 C41.517,14.123 41.089,13.957 40.608,13.821 C40.127,13.685 39.639,13.537 39.142,13.377 C38.645,13.217 38.156,13.025 37.676,12.801 C37.195,12.577 36.766,12.285 36.390,11.925 C36.013,11.565 35.711,11.115 35.483,10.575 C35.254,10.035 35.140,9.369 35.140,8.577 C35.140,7.945 35.266,7.329 35.519,6.729 C35.771,6.129 36.139,5.597 36.624,5.133 C37.109,4.669 37.704,4.297 38.409,4.017 C39.114,3.737 39.919,3.597 40.824,3.597 C41.850,3.597 42.795,3.757 43.660,4.077 C44.526,4.397 45.263,4.845 45.872,5.421 L45.078,6.945 C44.990,7.121 44.888,7.245 44.772,7.317 C44.656,7.389 44.518,7.425 44.357,7.425 C44.197,7.425 44.017,7.363 43.817,7.239 C43.616,7.115 43.380,6.977 43.108,6.825 C42.835,6.673 42.517,6.535 42.152,6.411 C41.788,6.287 41.357,6.225 40.860,6.225 C40.412,6.225 40.021,6.279 39.689,6.387 C39.356,6.495 39.076,6.645 38.847,6.837 C38.619,7.029 38.449,7.259 38.337,7.527 C38.224,7.795 38.168,8.089 38.168,8.409 C38.168,8.817 38.283,9.157 38.511,9.429 C38.739,9.701 39.042,9.933 39.418,10.125 Z" class="cls-1"/>
    <circle cx="11.5" cy="11.5" r="11.5" class="cls-2"/>
    <circle cx="11.594" cy="11.063" r="4.5" class="cls-3"/>
  </g>
</svg>
