<svg width="88" height="29" viewBox="0 0 88 29" fill="none" xmlns="http://www.w3.org/2000/svg">
<path d="M21.1288 21.006C21.2487 21.234 21.3627 21.471 21.4707 21.717C21.5847 21.963 21.6927 22.215 21.7948 22.473C21.8967 22.209 22.0047 21.954 22.1188 21.708C22.2328 21.456 22.3498 21.213 22.4698 20.979L25.8358 14.355C25.8958 14.241 25.9557 14.154 26.0157 14.094C26.0818 14.028 26.1538 13.98 26.2318 13.95C26.3098 13.92 26.3968 13.902 26.4927 13.896C26.5948 13.89 26.7118 13.887 26.8438 13.887H29.1658V27H26.4838V19.458C26.4838 19.092 26.5018 18.696 26.5377 18.27L23.0638 25.011C22.9558 25.221 22.8088 25.38 22.6228 25.488C22.4428 25.596 22.2358 25.65 22.0018 25.65H21.5878C21.3537 25.65 21.1437 25.596 20.9578 25.488C20.7777 25.38 20.6337 25.221 20.5257 25.011L17.0337 18.261C17.0578 18.471 17.0758 18.681 17.0878 18.891C17.0998 19.095 17.1058 19.284 17.1058 19.458V27H14.4237V13.887H16.7457C16.8778 13.887 16.9918 13.89 17.0878 13.896C17.1898 13.902 17.2798 13.92 17.3578 13.95C17.4357 13.98 17.5047 14.028 17.5648 14.094C17.6307 14.154 17.6937 14.241 17.7538 14.355L21.1288 21.006ZM43.5379 27H41.1799C40.9159 27 40.6969 26.94 40.5229 26.82C40.3549 26.694 40.2379 26.535 40.1719 26.343L39.3979 24.057H34.4119L33.6379 26.343C33.5779 26.511 33.4609 26.664 33.2869 26.802C33.1129 26.934 32.8999 27 32.6479 27H30.2719L35.3479 13.887H38.4619L43.5379 27ZM35.1139 21.987H38.6959L37.4899 18.396C37.4119 18.168 37.3189 17.901 37.2109 17.595C37.1089 17.283 37.0069 16.947 36.9049 16.587C36.8089 16.953 36.7099 17.292 36.6079 17.604C36.5059 17.916 36.4099 18.186 36.3199 18.414L35.1139 21.987ZM47.9354 27H44.8754V13.887H47.9354V27ZM51.973 13.887C52.105 13.887 52.216 13.893 52.306 13.905C52.396 13.917 52.477 13.941 52.549 13.977C52.621 14.007 52.69 14.052 52.756 14.112C52.822 14.172 52.897 14.253 52.981 14.355L59.209 22.23C59.185 21.978 59.167 21.735 59.155 21.501C59.143 21.261 59.137 21.036 59.137 20.826V13.887H61.819V27H60.235C60.001 27 59.803 26.964 59.641 26.892C59.479 26.82 59.323 26.688 59.173 26.496L52.99 18.684C53.008 18.912 53.023 19.137 53.035 19.359C53.047 19.575 53.053 19.779 53.053 19.971V27H50.371V13.887H51.973ZM63.9765 27V13.887H68.8005C69.7065 13.887 70.4775 13.971 71.1135 14.139C71.7495 14.307 72.2685 14.544 72.6705 14.85C73.0725 15.156 73.3635 15.528 73.5435 15.966C73.7295 16.404 73.8225 16.893 73.8225 17.433C73.8225 17.727 73.7805 18.012 73.6965 18.288C73.6125 18.558 73.4805 18.813 73.3005 19.053C73.1205 19.293 72.8895 19.512 72.6075 19.71C72.3255 19.902 71.9865 20.07 71.5905 20.214C72.4545 20.424 73.0935 20.766 73.5075 21.24C73.9215 21.708 74.1285 22.311 74.1285 23.049C74.1285 23.607 74.0205 24.126 73.8045 24.606C73.5885 25.086 73.2705 25.506 72.8505 25.866C72.4365 26.22 71.9235 26.499 71.3115 26.703C70.6995 26.901 70.0005 27 69.2145 27H63.9765ZM67.0185 21.438V24.705H69.1605C69.5625 24.705 69.8895 24.654 70.1415 24.552C70.3995 24.45 70.6005 24.318 70.7445 24.156C70.8885 23.994 70.9875 23.811 71.0415 23.607C71.0955 23.403 71.1225 23.196 71.1225 22.986C71.1225 22.746 71.0895 22.53 71.0235 22.338C70.9635 22.146 70.8555 21.984 70.6995 21.852C70.5495 21.72 70.3485 21.618 70.0965 21.546C69.8445 21.474 69.5265 21.438 69.1425 21.438H67.0185ZM67.0185 19.404H68.6025C68.9385 19.404 69.2415 19.38 69.5115 19.332C69.7815 19.284 70.0095 19.2 70.1955 19.08C70.3875 18.96 70.5315 18.795 70.6275 18.585C70.7295 18.375 70.7805 18.111 70.7805 17.793C70.7805 17.481 70.7415 17.223 70.6635 17.019C70.5855 16.809 70.4655 16.641 70.3035 16.515C70.1415 16.389 69.9345 16.299 69.6825 16.245C69.4365 16.191 69.1425 16.164 68.8005 16.164H67.0185V19.404ZM88.731 20.439C88.731 21.387 88.566 22.269 88.236 23.085C87.912 23.901 87.453 24.612 86.859 25.218C86.265 25.818 85.548 26.289 84.708 26.631C83.874 26.973 82.947 27.144 81.927 27.144C80.907 27.144 79.977 26.973 79.137 26.631C78.297 26.289 77.577 25.818 76.977 25.218C76.383 24.612 75.921 23.901 75.591 23.085C75.267 22.269 75.105 21.387 75.105 20.439C75.105 19.491 75.267 18.609 75.591 17.793C75.921 16.977 76.383 16.269 76.977 15.669C77.577 15.069 78.297 14.598 79.137 14.256C79.977 13.914 80.907 13.743 81.927 13.743C82.947 13.743 83.874 13.917 84.708 14.265C85.548 14.607 86.265 15.078 86.859 15.678C87.453 16.278 87.912 16.986 88.236 17.802C88.566 18.618 88.731 19.497 88.731 20.439ZM85.617 20.439C85.617 19.791 85.533 19.209 85.365 18.693C85.197 18.171 84.954 17.73 84.636 17.37C84.324 17.01 83.94 16.734 83.484 16.542C83.028 16.35 82.509 16.254 81.927 16.254C81.339 16.254 80.814 16.35 80.352 16.542C79.896 16.734 79.509 17.01 79.191 17.37C78.879 17.73 78.639 18.171 78.471 18.693C78.303 19.209 78.219 19.791 78.219 20.439C78.219 21.093 78.303 21.681 78.471 22.203C78.639 22.719 78.879 23.157 79.191 23.517C79.509 23.877 79.896 24.153 80.352 24.345C80.814 24.531 81.339 24.624 81.927 24.624C82.509 24.624 83.028 24.531 83.484 24.345C83.94 24.153 84.324 23.877 84.636 23.517C84.954 23.157 85.197 22.719 85.365 22.203C85.533 21.681 85.617 21.093 85.617 20.439ZM93.1528 20.259L89.0938 13.887H92.1358C92.3338 13.887 92.4778 13.914 92.5678 13.968C92.6638 14.016 92.7478 14.1 92.8198 14.22L95.4298 18.639C95.4598 18.561 95.4928 18.486 95.5288 18.414C95.5708 18.342 95.6158 18.267 95.6638 18.189L97.9498 14.265C98.0998 14.013 98.3038 13.887 98.5618 13.887H101.478L97.3648 20.124L101.568 27H98.5258C98.3278 27 98.1658 26.952 98.0398 26.856C97.9198 26.76 97.8238 26.646 97.7518 26.514L95.1238 21.924C95.0758 22.056 95.0218 22.17 94.9618 22.266L92.5138 26.514C92.4418 26.64 92.3458 26.754 92.2258 26.856C92.1058 26.952 91.9558 27 91.7758 27H88.9318L93.1528 20.259ZM15.022 41.715V34.935H15.552C15.6787 34.935 15.7587 34.9967 15.792 35.12L15.867 35.72C16.0837 35.4567 16.3303 35.245 16.607 35.085C16.887 34.925 17.2087 34.845 17.572 34.845C17.862 34.845 18.1253 34.9017 18.362 35.015C18.5987 35.125 18.8003 35.29 18.967 35.51C19.1337 35.7267 19.262 35.9967 19.352 36.32C19.442 36.6433 19.487 37.015 19.487 37.435C19.487 37.8083 19.437 38.1567 19.337 38.48C19.237 38.8 19.0937 39.0783 18.907 39.315C18.7203 39.5483 18.4903 39.7333 18.217 39.87C17.947 40.0033 17.642 40.07 17.302 40.07C16.9887 40.07 16.7203 40.0183 16.497 39.915C16.277 39.8117 16.082 39.665 15.912 39.475V41.715H15.022ZM17.277 35.565C16.987 35.565 16.732 35.6317 16.512 35.765C16.2953 35.8983 16.0953 36.0867 15.912 36.33V38.78C16.0753 39 16.2537 39.155 16.447 39.245C16.6437 39.335 16.862 39.38 17.102 39.38C17.572 39.38 17.9337 39.2117 18.187 38.875C18.4403 38.5383 18.567 38.0583 18.567 37.435C18.567 37.105 18.537 36.8217 18.477 36.585C18.4203 36.3483 18.337 36.155 18.227 36.005C18.117 35.8517 17.982 35.74 17.822 35.67C17.662 35.6 17.4803 35.565 17.277 35.565ZM21.5296 32.635V40H20.6396V32.635H21.5296ZM26.8182 40H26.4232C26.3365 40 26.2665 39.9867 26.2132 39.96C26.1598 39.9333 26.1248 39.8767 26.1082 39.79L26.0082 39.32C25.8748 39.44 25.7448 39.5483 25.6182 39.645C25.4915 39.7383 25.3582 39.8183 25.2182 39.885C25.0782 39.9483 24.9282 39.9967 24.7682 40.03C24.6115 40.0633 24.4365 40.08 24.2432 40.08C24.0465 40.08 23.8615 40.0533 23.6882 40C23.5182 39.9433 23.3698 39.86 23.2432 39.75C23.1165 39.64 23.0148 39.5017 22.9382 39.335C22.8648 39.165 22.8282 38.965 22.8282 38.735C22.8282 38.535 22.8832 38.3433 22.9932 38.16C23.1032 37.9733 23.2798 37.8083 23.5232 37.665C23.7698 37.5217 24.0915 37.405 24.4882 37.315C24.8848 37.2217 25.3698 37.1683 25.9432 37.155V36.76C25.9432 36.3667 25.8582 36.07 25.6882 35.87C25.5215 35.6667 25.2732 35.565 24.9432 35.565C24.7265 35.565 24.5432 35.5933 24.3932 35.65C24.2465 35.7033 24.1182 35.765 24.0082 35.835C23.9015 35.9017 23.8082 35.9633 23.7282 36.02C23.6515 36.0733 23.5748 36.1 23.4982 36.1C23.4382 36.1 23.3848 36.085 23.3382 36.055C23.2948 36.0217 23.2598 35.9817 23.2332 35.935L23.0732 35.65C23.3532 35.38 23.6548 35.1783 23.9782 35.045C24.3015 34.9117 24.6598 34.845 25.0532 34.845C25.3365 34.845 25.5882 34.8917 25.8082 34.985C26.0282 35.0783 26.2132 35.2083 26.3632 35.375C26.5132 35.5417 26.6265 35.7433 26.7032 35.98C26.7798 36.2167 26.8182 36.4767 26.8182 36.76V40ZM24.5082 39.455C24.6648 39.455 24.8082 39.44 24.9382 39.41C25.0682 39.3767 25.1898 39.3317 25.3032 39.275C25.4198 39.215 25.5298 39.1433 25.6332 39.06C25.7398 38.9767 25.8432 38.8817 25.9432 38.775V37.72C25.5332 37.7333 25.1848 37.7667 24.8982 37.82C24.6115 37.87 24.3782 37.9367 24.1982 38.02C24.0182 38.1033 23.8865 38.2017 23.8032 38.315C23.7232 38.4283 23.6832 38.555 23.6832 38.695C23.6832 38.8283 23.7048 38.9433 23.7482 39.04C23.7915 39.1367 23.8498 39.2167 23.9232 39.28C23.9965 39.34 24.0832 39.385 24.1832 39.415C24.2832 39.4417 24.3915 39.455 24.5082 39.455ZM31.6215 35.835C31.5949 35.8717 31.5682 35.9 31.5415 35.92C31.5149 35.94 31.4765 35.95 31.4265 35.95C31.3765 35.95 31.3215 35.93 31.2615 35.89C31.2049 35.8467 31.1315 35.8 31.0415 35.75C30.9515 35.7 30.8415 35.655 30.7115 35.615C30.5849 35.5717 30.4282 35.55 30.2415 35.55C29.9949 35.55 29.7765 35.595 29.5865 35.685C29.3965 35.7717 29.2365 35.8983 29.1065 36.065C28.9799 36.2317 28.8832 36.4333 28.8165 36.67C28.7532 36.9067 28.7215 37.1717 28.7215 37.465C28.7215 37.7717 28.7565 38.045 28.8265 38.285C28.8965 38.5217 28.9949 38.7217 29.1215 38.885C29.2482 39.045 29.4015 39.1683 29.5815 39.255C29.7649 39.3383 29.9699 39.38 30.1965 39.38C30.4132 39.38 30.5915 39.355 30.7315 39.305C30.8715 39.2517 30.9882 39.1933 31.0815 39.13C31.1749 39.0667 31.2515 39.01 31.3115 38.96C31.3715 38.9067 31.4315 38.88 31.4915 38.88C31.5682 38.88 31.6249 38.9083 31.6615 38.965L31.9115 39.29C31.6915 39.56 31.4165 39.7583 31.0865 39.885C30.7565 40.0083 30.4082 40.07 30.0415 40.07C29.7249 40.07 29.4299 40.0117 29.1565 39.895C28.8865 39.7783 28.6515 39.61 28.4515 39.39C28.2515 39.1667 28.0932 38.8933 27.9765 38.57C27.8632 38.2467 27.8065 37.8783 27.8065 37.465C27.8065 37.0883 27.8582 36.74 27.9615 36.42C28.0682 36.1 28.2215 35.825 28.4215 35.595C28.6249 35.3617 28.8749 35.18 29.1715 35.05C29.4682 34.92 29.8082 34.855 30.1915 34.855C30.5449 34.855 30.8582 34.9133 31.1315 35.03C31.4049 35.1433 31.6465 35.305 31.8565 35.515L31.6215 35.835ZM34.8395 34.855C35.1428 34.855 35.4228 34.9067 35.6795 35.01C35.9362 35.11 36.1578 35.2567 36.3445 35.45C36.5312 35.64 36.6762 35.8767 36.7795 36.16C36.8862 36.44 36.9395 36.76 36.9395 37.12C36.9395 37.26 36.9245 37.3533 36.8945 37.4C36.8645 37.4467 36.8078 37.47 36.7245 37.47H33.3545C33.3612 37.79 33.4045 38.0683 33.4845 38.305C33.5645 38.5417 33.6745 38.74 33.8145 38.9C33.9545 39.0567 34.1212 39.175 34.3145 39.255C34.5078 39.3317 34.7245 39.37 34.9645 39.37C35.1878 39.37 35.3795 39.345 35.5395 39.295C35.7028 39.2417 35.8428 39.185 35.9595 39.125C36.0762 39.065 36.1728 39.01 36.2495 38.96C36.3295 38.9067 36.3978 38.88 36.4545 38.88C36.5278 38.88 36.5845 38.9083 36.6245 38.965L36.8745 39.29C36.7645 39.4233 36.6328 39.54 36.4795 39.64C36.3262 39.7367 36.1612 39.8167 35.9845 39.88C35.8112 39.9433 35.6312 39.99 35.4445 40.02C35.2578 40.0533 35.0728 40.07 34.8895 40.07C34.5395 40.07 34.2162 40.0117 33.9195 39.895C33.6262 39.775 33.3712 39.6017 33.1545 39.375C32.9412 39.145 32.7745 38.8617 32.6545 38.525C32.5345 38.1883 32.4745 37.8017 32.4745 37.365C32.4745 37.0117 32.5278 36.6817 32.6345 36.375C32.7445 36.0683 32.9012 35.8033 33.1045 35.58C33.3078 35.3533 33.5562 35.1767 33.8495 35.05C34.1428 34.92 34.4728 34.855 34.8395 34.855ZM34.8595 35.51C34.4295 35.51 34.0912 35.635 33.8445 35.885C33.5978 36.1317 33.4445 36.475 33.3845 36.915H36.1395C36.1395 36.7083 36.1112 36.52 36.0545 36.35C35.9978 36.1767 35.9145 36.0283 35.8045 35.905C35.6945 35.7783 35.5595 35.6817 35.3995 35.615C35.2428 35.545 35.0628 35.51 34.8595 35.51ZM40.2122 40V35.695L39.6522 35.63C39.5822 35.6133 39.5239 35.5883 39.4772 35.555C39.4339 35.5183 39.4122 35.4667 39.4122 35.4V35.035H40.2122V34.545C40.2122 34.255 40.2522 33.9983 40.3322 33.775C40.4156 33.5483 40.5322 33.3583 40.6822 33.205C40.8356 33.0483 41.0189 32.93 41.2322 32.85C41.4456 32.77 41.6856 32.73 41.9522 32.73C42.1789 32.73 42.3889 32.7633 42.5822 32.83L42.5622 33.275C42.5589 33.3417 42.5306 33.3817 42.4772 33.395C42.4239 33.4083 42.3489 33.415 42.2522 33.415H42.0972C41.9439 33.415 41.8039 33.435 41.6772 33.475C41.5539 33.515 41.4472 33.58 41.3572 33.67C41.2672 33.76 41.1972 33.8783 41.1472 34.025C41.1006 34.1717 41.0772 34.3533 41.0772 34.57V35.035H42.5422V35.68H41.1072V40H40.2122ZM45.4314 34.855C45.8014 34.855 46.1347 34.9167 46.4314 35.04C46.7314 35.1633 46.9847 35.3383 47.1914 35.565C47.4014 35.7917 47.5614 36.0667 47.6714 36.39C47.7847 36.71 47.8414 37.0683 47.8414 37.465C47.8414 37.865 47.7847 38.225 47.6714 38.545C47.5614 38.865 47.4014 39.1383 47.1914 39.365C46.9847 39.5917 46.7314 39.7667 46.4314 39.89C46.1347 40.01 45.8014 40.07 45.4314 40.07C45.0614 40.07 44.7264 40.01 44.4264 39.89C44.1297 39.7667 43.8764 39.5917 43.6664 39.365C43.4564 39.1383 43.2947 38.865 43.1814 38.545C43.068 38.225 43.0114 37.865 43.0114 37.465C43.0114 37.0683 43.068 36.71 43.1814 36.39C43.2947 36.0667 43.4564 35.7917 43.6664 35.565C43.8764 35.3383 44.1297 35.1633 44.4264 35.04C44.7264 34.9167 45.0614 34.855 45.4314 34.855ZM45.4314 39.375C45.9314 39.375 46.3047 39.2083 46.5514 38.875C46.798 38.5383 46.9214 38.07 46.9214 37.47C46.9214 36.8667 46.798 36.3967 46.5514 36.06C46.3047 35.7233 45.9314 35.555 45.4314 35.555C45.178 35.555 44.958 35.5983 44.7714 35.685C44.5847 35.7717 44.428 35.8967 44.3014 36.06C44.178 36.2233 44.0847 36.425 44.0214 36.665C43.9614 36.9017 43.9314 37.17 43.9314 37.47C43.9314 37.77 43.9614 38.0383 44.0214 38.275C44.0847 38.5117 44.178 38.7117 44.3014 38.875C44.428 39.035 44.5847 39.1583 44.7714 39.245C44.958 39.3317 45.178 39.375 45.4314 39.375ZM48.938 40V34.935H49.448C49.5447 34.935 49.6113 34.9533 49.648 34.99C49.6847 35.0267 49.7097 35.09 49.723 35.18L49.783 35.97C49.9563 35.6167 50.1697 35.3417 50.423 35.145C50.6797 34.945 50.9797 34.845 51.323 34.845C51.463 34.845 51.5897 34.8617 51.703 34.895C51.8163 34.925 51.9213 34.9683 52.018 35.025L51.903 35.69C51.8797 35.7733 51.828 35.815 51.748 35.815C51.7013 35.815 51.6297 35.8 51.533 35.77C51.4363 35.7367 51.3013 35.72 51.128 35.72C50.818 35.72 50.558 35.81 50.348 35.99C50.1413 36.17 49.968 36.4317 49.828 36.775V40H48.938ZM56.6098 34.85C56.8298 34.85 57.0348 34.875 57.2248 34.925C57.4181 34.9717 57.5931 35.0417 57.7498 35.135H59.1248V35.465C59.1248 35.575 59.0548 35.645 58.9148 35.675L58.3398 35.755C58.4531 35.9717 58.5098 36.2133 58.5098 36.48C58.5098 36.7267 58.4615 36.9517 58.3648 37.155C58.2715 37.355 58.1398 37.5267 57.9698 37.67C57.8031 37.8133 57.6031 37.9233 57.3698 38C57.1398 38.0767 56.8865 38.115 56.6098 38.115C56.3731 38.115 56.1498 38.0867 55.9398 38.03C55.8331 38.0967 55.7515 38.1683 55.6948 38.245C55.6415 38.3217 55.6148 38.3967 55.6148 38.47C55.6148 38.59 55.6631 38.6817 55.7598 38.745C55.8565 38.805 55.9848 38.8483 56.1448 38.875C56.3048 38.9017 56.4865 38.9183 56.6898 38.925C56.8931 38.9317 57.0998 38.9433 57.3098 38.96C57.5231 38.9733 57.7315 38.9983 57.9348 39.035C58.1381 39.0717 58.3198 39.1317 58.4798 39.215C58.6398 39.2983 58.7681 39.4133 58.8648 39.56C58.9615 39.7067 59.0098 39.8967 59.0098 40.13C59.0098 40.3467 58.9548 40.5567 58.8448 40.76C58.7381 40.9633 58.5831 41.1433 58.3798 41.3C58.1765 41.46 57.9281 41.5867 57.6348 41.68C57.3415 41.7767 57.0098 41.825 56.6398 41.825C56.2698 41.825 55.9448 41.7883 55.6648 41.715C55.3881 41.6417 55.1581 41.5433 54.9748 41.42C54.7915 41.2967 54.6531 41.1533 54.5598 40.99C54.4698 40.83 54.4248 40.6617 54.4248 40.485C54.4248 40.235 54.5031 40.0233 54.6598 39.85C54.8198 39.6733 55.0381 39.5333 55.3148 39.43C55.1715 39.3633 55.0565 39.275 54.9698 39.165C54.8865 39.0517 54.8448 38.9017 54.8448 38.715C54.8448 38.6417 54.8581 38.5667 54.8848 38.49C54.9115 38.41 54.9515 38.3317 55.0048 38.255C55.0615 38.1783 55.1298 38.105 55.2098 38.035C55.2898 37.965 55.3831 37.9033 55.4898 37.85C55.2398 37.71 55.0431 37.525 54.8998 37.295C54.7598 37.0617 54.6898 36.79 54.6898 36.48C54.6898 36.2333 54.7365 36.01 54.8298 35.81C54.9265 35.6067 55.0598 35.435 55.2298 35.295C55.3998 35.1517 55.6015 35.0417 55.8348 34.965C56.0715 34.8883 56.3298 34.85 56.6098 34.85ZM58.1898 40.275C58.1898 40.1483 58.1548 40.0467 58.0848 39.97C58.0148 39.8933 57.9198 39.835 57.7998 39.795C57.6798 39.7517 57.5415 39.72 57.3848 39.7C57.2281 39.68 57.0631 39.6667 56.8898 39.66C56.7165 39.65 56.5398 39.64 56.3598 39.63C56.1798 39.62 56.0081 39.6017 55.8448 39.575C55.6548 39.665 55.4998 39.775 55.3798 39.905C55.2631 40.035 55.2048 40.19 55.2048 40.37C55.2048 40.4833 55.2331 40.5883 55.2898 40.685C55.3498 40.785 55.4398 40.87 55.5598 40.94C55.6798 41.0133 55.8298 41.07 56.0098 41.11C56.1931 41.1533 56.4081 41.175 56.6548 41.175C56.8948 41.175 57.1098 41.1533 57.2998 41.11C57.4898 41.0667 57.6498 41.005 57.7798 40.925C57.9131 40.845 58.0148 40.75 58.0848 40.64C58.1548 40.53 58.1898 40.4083 58.1898 40.275ZM56.6098 37.525C56.7898 37.525 56.9481 37.5 57.0848 37.45C57.2248 37.4 57.3415 37.33 57.4348 37.24C57.5281 37.15 57.5981 37.0433 57.6448 36.92C57.6915 36.7933 57.7148 36.655 57.7148 36.505C57.7148 36.195 57.6198 35.9483 57.4298 35.765C57.2431 35.5817 56.9698 35.49 56.6098 35.49C56.2531 35.49 55.9798 35.5817 55.7898 35.765C55.6031 35.9483 55.5098 36.195 55.5098 36.505C55.5098 36.655 55.5331 36.7933 55.5798 36.92C55.6298 37.0433 55.7015 37.15 55.7948 37.24C55.8881 37.33 56.0031 37.4 56.1398 37.45C56.2765 37.5 56.4331 37.525 56.6098 37.525ZM62.0622 34.855C62.4322 34.855 62.7656 34.9167 63.0622 35.04C63.3622 35.1633 63.6156 35.3383 63.8222 35.565C64.0322 35.7917 64.1922 36.0667 64.3022 36.39C64.4156 36.71 64.4722 37.0683 64.4722 37.465C64.4722 37.865 64.4156 38.225 64.3022 38.545C64.1922 38.865 64.0322 39.1383 63.8222 39.365C63.6156 39.5917 63.3622 39.7667 63.0622 39.89C62.7656 40.01 62.4322 40.07 62.0622 40.07C61.6922 40.07 61.3572 40.01 61.0572 39.89C60.7606 39.7667 60.5072 39.5917 60.2972 39.365C60.0872 39.1383 59.9256 38.865 59.8122 38.545C59.6989 38.225 59.6422 37.865 59.6422 37.465C59.6422 37.0683 59.6989 36.71 59.8122 36.39C59.9256 36.0667 60.0872 35.7917 60.2972 35.565C60.5072 35.3383 60.7606 35.1633 61.0572 35.04C61.3572 34.9167 61.6922 34.855 62.0622 34.855ZM62.0622 39.375C62.5622 39.375 62.9356 39.2083 63.1822 38.875C63.4289 38.5383 63.5522 38.07 63.5522 37.47C63.5522 36.8667 63.4289 36.3967 63.1822 36.06C62.9356 35.7233 62.5622 35.555 62.0622 35.555C61.8089 35.555 61.5889 35.5983 61.4022 35.685C61.2156 35.7717 61.0589 35.8967 60.9322 36.06C60.8089 36.2233 60.7156 36.425 60.6522 36.665C60.5922 36.9017 60.5622 37.17 60.5622 37.47C60.5622 37.77 60.5922 38.0383 60.6522 38.275C60.7156 38.5117 60.8089 38.7117 60.9322 38.875C61.0589 39.035 61.2156 39.1583 61.4022 39.245C61.5889 39.3317 61.8089 39.375 62.0622 39.375ZM67.6189 34.855C67.9889 34.855 68.3222 34.9167 68.6189 35.04C68.9189 35.1633 69.1722 35.3383 69.3789 35.565C69.5889 35.7917 69.7489 36.0667 69.8589 36.39C69.9722 36.71 70.0289 37.0683 70.0289 37.465C70.0289 37.865 69.9722 38.225 69.8589 38.545C69.7489 38.865 69.5889 39.1383 69.3789 39.365C69.1722 39.5917 68.9189 39.7667 68.6189 39.89C68.3222 40.01 67.9889 40.07 67.6189 40.07C67.2489 40.07 66.9139 40.01 66.6139 39.89C66.3172 39.7667 66.0639 39.5917 65.8539 39.365C65.6439 39.1383 65.4822 38.865 65.3689 38.545C65.2555 38.225 65.1989 37.865 65.1989 37.465C65.1989 37.0683 65.2555 36.71 65.3689 36.39C65.4822 36.0667 65.6439 35.7917 65.8539 35.565C66.0639 35.3383 66.3172 35.1633 66.6139 35.04C66.9139 34.9167 67.2489 34.855 67.6189 34.855ZM67.6189 39.375C68.1189 39.375 68.4922 39.2083 68.7389 38.875C68.9855 38.5383 69.1089 38.07 69.1089 37.47C69.1089 36.8667 68.9855 36.3967 68.7389 36.06C68.4922 35.7233 68.1189 35.555 67.6189 35.555C67.3655 35.555 67.1455 35.5983 66.9589 35.685C66.7722 35.7717 66.6155 35.8967 66.4889 36.06C66.3655 36.2233 66.2722 36.425 66.2089 36.665C66.1489 36.9017 66.1189 37.17 66.1189 37.47C66.1189 37.77 66.1489 38.0383 66.2089 38.275C66.2722 38.5117 66.3655 38.7117 66.4889 38.875C66.6155 39.035 66.7722 39.1583 66.9589 39.245C67.1455 39.3317 67.3655 39.375 67.6189 39.375ZM74.6905 40C74.5638 40 74.4838 39.9383 74.4505 39.815L74.3705 39.2C74.1538 39.4633 73.9055 39.675 73.6255 39.835C73.3488 39.9917 73.0305 40.07 72.6705 40.07C72.3805 40.07 72.1172 40.015 71.8805 39.905C71.6438 39.7917 71.4422 39.6267 71.2755 39.41C71.1088 39.1933 70.9805 38.9233 70.8905 38.6C70.8005 38.2767 70.7555 37.905 70.7555 37.485C70.7555 37.1117 70.8055 36.765 70.9055 36.445C71.0055 36.1217 71.1488 35.8417 71.3355 35.605C71.5255 35.3683 71.7555 35.1833 72.0255 35.05C72.2955 34.9133 72.6022 34.845 72.9455 34.845C73.2555 34.845 73.5205 34.8983 73.7405 35.005C73.9605 35.1083 74.1572 35.255 74.3305 35.445V32.635H75.2205V40H74.6905ZM72.9655 39.35C73.2555 39.35 73.5088 39.2833 73.7255 39.15C73.9455 39.0167 74.1472 38.8283 74.3305 38.585V36.135C74.1672 35.915 73.9872 35.7617 73.7905 35.675C73.5972 35.585 73.3822 35.54 73.1455 35.54C72.6722 35.54 72.3088 35.7083 72.0555 36.045C71.8022 36.3817 71.6755 36.8617 71.6755 37.485C71.6755 37.815 71.7038 38.0983 71.7605 38.335C71.8172 38.5683 71.9005 38.7617 72.0105 38.915C72.1205 39.065 72.2555 39.175 72.4155 39.245C72.5755 39.315 72.7588 39.35 72.9655 39.35ZM79.635 34.935V40H78.745V34.935H79.635ZM79.835 33.345C79.835 33.4317 79.8167 33.5133 79.78 33.59C79.7467 33.6633 79.7 33.73 79.64 33.79C79.5834 33.8467 79.5167 33.8917 79.44 33.925C79.3634 33.9583 79.2817 33.975 79.195 33.975C79.1084 33.975 79.0267 33.9583 78.95 33.925C78.8767 33.8917 78.81 33.8467 78.75 33.79C78.6934 33.73 78.6484 33.6633 78.615 33.59C78.5817 33.5133 78.565 33.4317 78.565 33.345C78.565 33.2583 78.5817 33.1767 78.615 33.1C78.6484 33.02 78.6934 32.9517 78.75 32.895C78.81 32.835 78.8767 32.7883 78.95 32.755C79.0267 32.7217 79.1084 32.705 79.195 32.705C79.2817 32.705 79.3634 32.7217 79.44 32.755C79.5167 32.7883 79.5834 32.835 79.64 32.895C79.7 32.9517 79.7467 33.02 79.78 33.1C79.8167 33.1767 79.835 33.2583 79.835 33.345ZM84.7686 40C84.642 40 84.562 39.9383 84.5286 39.815L84.4486 39.2C84.232 39.4633 83.9836 39.675 83.7036 39.835C83.427 39.9917 83.1086 40.07 82.7486 40.07C82.4586 40.07 82.1953 40.015 81.9586 39.905C81.722 39.7917 81.5203 39.6267 81.3536 39.41C81.187 39.1933 81.0586 38.9233 80.9686 38.6C80.8786 38.2767 80.8336 37.905 80.8336 37.485C80.8336 37.1117 80.8836 36.765 80.9836 36.445C81.0836 36.1217 81.227 35.8417 81.4136 35.605C81.6036 35.3683 81.8336 35.1833 82.1036 35.05C82.3736 34.9133 82.6803 34.845 83.0236 34.845C83.3336 34.845 83.5986 34.8983 83.8186 35.005C84.0386 35.1083 84.2353 35.255 84.4086 35.445V32.635H85.2986V40H84.7686ZM83.0436 39.35C83.3336 39.35 83.587 39.2833 83.8036 39.15C84.0236 39.0167 84.2253 38.8283 84.4086 38.585V36.135C84.2453 35.915 84.0653 35.7617 83.8686 35.675C83.6753 35.585 83.4603 35.54 83.2236 35.54C82.7503 35.54 82.387 35.7083 82.1336 36.045C81.8803 36.3817 81.7536 36.8617 81.7536 37.485C81.7536 37.815 81.782 38.0983 81.8386 38.335C81.8953 38.5683 81.9786 38.7617 82.0886 38.915C82.1986 39.065 82.3336 39.175 82.4936 39.245C82.6536 39.315 82.837 39.35 83.0436 39.35ZM88.7946 34.855C89.0979 34.855 89.3779 34.9067 89.6346 35.01C89.8912 35.11 90.1129 35.2567 90.2996 35.45C90.4862 35.64 90.6312 35.8767 90.7346 36.16C90.8412 36.44 90.8946 36.76 90.8946 37.12C90.8946 37.26 90.8796 37.3533 90.8496 37.4C90.8196 37.4467 90.7629 37.47 90.6796 37.47H87.3096C87.3162 37.79 87.3596 38.0683 87.4396 38.305C87.5196 38.5417 87.6296 38.74 87.7696 38.9C87.9096 39.0567 88.0762 39.175 88.2696 39.255C88.4629 39.3317 88.6796 39.37 88.9196 39.37C89.1429 39.37 89.3346 39.345 89.4946 39.295C89.6579 39.2417 89.7979 39.185 89.9146 39.125C90.0312 39.065 90.1279 39.01 90.2046 38.96C90.2846 38.9067 90.3529 38.88 90.4096 38.88C90.4829 38.88 90.5396 38.9083 90.5796 38.965L90.8296 39.29C90.7196 39.4233 90.5879 39.54 90.4346 39.64C90.2812 39.7367 90.1162 39.8167 89.9396 39.88C89.7662 39.9433 89.5862 39.99 89.3996 40.02C89.2129 40.0533 89.0279 40.07 88.8446 40.07C88.4946 40.07 88.1712 40.0117 87.8746 39.895C87.5812 39.775 87.3262 39.6017 87.1096 39.375C86.8962 39.145 86.7296 38.8617 86.6096 38.525C86.4896 38.1883 86.4296 37.8017 86.4296 37.365C86.4296 37.0117 86.4829 36.6817 86.5896 36.375C86.6996 36.0683 86.8562 35.8033 87.0596 35.58C87.2629 35.3533 87.5112 35.1767 87.8046 35.05C88.0979 34.92 88.4279 34.855 88.7946 34.855ZM88.8146 35.51C88.3846 35.51 88.0462 35.635 87.7996 35.885C87.5529 36.1317 87.3996 36.475 87.3396 36.915H90.0946C90.0946 36.7083 90.0662 36.52 90.0096 36.35C89.9529 36.1767 89.8696 36.0283 89.7596 35.905C89.6496 35.7783 89.5146 35.6817 89.3546 35.615C89.1979 35.545 89.0179 35.51 88.8146 35.51ZM95.7537 40H95.3587C95.272 40 95.202 39.9867 95.1487 39.96C95.0954 39.9333 95.0604 39.8767 95.0437 39.79L94.9437 39.32C94.8104 39.44 94.6804 39.5483 94.5537 39.645C94.427 39.7383 94.2937 39.8183 94.1537 39.885C94.0137 39.9483 93.8637 39.9967 93.7037 40.03C93.547 40.0633 93.372 40.08 93.1787 40.08C92.982 40.08 92.797 40.0533 92.6237 40C92.4537 39.9433 92.3054 39.86 92.1787 39.75C92.052 39.64 91.9504 39.5017 91.8737 39.335C91.8004 39.165 91.7637 38.965 91.7637 38.735C91.7637 38.535 91.8187 38.3433 91.9287 38.16C92.0387 37.9733 92.2154 37.8083 92.4587 37.665C92.7054 37.5217 93.027 37.405 93.4237 37.315C93.8204 37.2217 94.3054 37.1683 94.8787 37.155V36.76C94.8787 36.3667 94.7937 36.07 94.6237 35.87C94.457 35.6667 94.2087 35.565 93.8787 35.565C93.662 35.565 93.4787 35.5933 93.3287 35.65C93.182 35.7033 93.0537 35.765 92.9437 35.835C92.837 35.9017 92.7437 35.9633 92.6637 36.02C92.587 36.0733 92.5104 36.1 92.4337 36.1C92.3737 36.1 92.3204 36.085 92.2737 36.055C92.2304 36.0217 92.1954 35.9817 92.1687 35.935L92.0087 35.65C92.2887 35.38 92.5904 35.1783 92.9137 35.045C93.237 34.9117 93.5954 34.845 93.9887 34.845C94.272 34.845 94.5237 34.8917 94.7437 34.985C94.9637 35.0783 95.1487 35.2083 95.2987 35.375C95.4487 35.5417 95.562 35.7433 95.6387 35.98C95.7154 36.2167 95.7537 36.4767 95.7537 36.76V40ZM93.4437 39.455C93.6004 39.455 93.7437 39.44 93.8737 39.41C94.0037 39.3767 94.1254 39.3317 94.2387 39.275C94.3554 39.215 94.4654 39.1433 94.5687 39.06C94.6754 38.9767 94.7787 38.8817 94.8787 38.775V37.72C94.4687 37.7333 94.1204 37.7667 93.8337 37.82C93.547 37.87 93.3137 37.9367 93.1337 38.02C92.9537 38.1033 92.822 38.2017 92.7387 38.315C92.6587 38.4283 92.6187 38.555 92.6187 38.695C92.6187 38.8283 92.6404 38.9433 92.6837 39.04C92.727 39.1367 92.7854 39.2167 92.8587 39.28C92.932 39.34 93.0187 39.385 93.1187 39.415C93.2187 39.4417 93.327 39.455 93.4437 39.455ZM100.002 35.77C99.9621 35.8433 99.9004 35.88 99.8171 35.88C99.7671 35.88 99.7104 35.8617 99.6471 35.825C99.5837 35.7883 99.5054 35.7483 99.4121 35.705C99.3221 35.6583 99.2137 35.6167 99.0871 35.58C98.9604 35.54 98.8104 35.52 98.6371 35.52C98.4871 35.52 98.3521 35.54 98.2321 35.58C98.1121 35.6167 98.0087 35.6683 97.9221 35.735C97.8387 35.8017 97.7737 35.88 97.7271 35.97C97.6837 36.0567 97.6621 36.1517 97.6621 36.255C97.6621 36.385 97.6987 36.4933 97.7721 36.58C97.8487 36.6667 97.9487 36.7417 98.0721 36.805C98.1954 36.8683 98.3354 36.925 98.4921 36.975C98.6487 37.0217 98.8087 37.0733 98.9721 37.13C99.1387 37.1833 99.3004 37.2433 99.4571 37.31C99.6137 37.3767 99.7537 37.46 99.8771 37.56C100 37.66 100.099 37.7833 100.172 37.93C100.249 38.0733 100.287 38.2467 100.287 38.45C100.287 38.6833 100.245 38.9 100.162 39.1C100.079 39.2967 99.9554 39.4683 99.7921 39.615C99.6287 39.7583 99.4287 39.8717 99.1921 39.955C98.9554 40.0383 98.6821 40.08 98.3721 40.08C98.0187 40.08 97.6987 40.0233 97.4121 39.91C97.1254 39.7933 96.8821 39.645 96.6821 39.465L96.8921 39.125C96.9187 39.0817 96.9504 39.0483 96.9871 39.025C97.0237 39.0017 97.0721 38.99 97.1321 38.99C97.1921 38.99 97.2554 39.0133 97.3221 39.06C97.3887 39.1067 97.4687 39.1583 97.5621 39.215C97.6587 39.2717 97.7737 39.3233 97.9071 39.37C98.0437 39.4167 98.2137 39.44 98.4171 39.44C98.5904 39.44 98.7421 39.4183 98.8721 39.375C99.0021 39.3283 99.1104 39.2667 99.1971 39.19C99.2837 39.1133 99.3471 39.025 99.3871 38.925C99.4304 38.825 99.4521 38.7183 99.4521 38.605C99.4521 38.465 99.4137 38.35 99.3371 38.26C99.2637 38.1667 99.1654 38.0883 99.0421 38.025C98.9187 37.9583 98.7771 37.9017 98.6171 37.855C98.4604 37.805 98.2987 37.7533 98.1321 37.7C97.9687 37.6467 97.8071 37.5867 97.6471 37.52C97.4904 37.45 97.3504 37.3633 97.2271 37.26C97.1037 37.1567 97.0037 37.03 96.9271 36.88C96.8537 36.7267 96.8171 36.5417 96.8171 36.325C96.8171 36.1317 96.8571 35.9467 96.9371 35.77C97.0171 35.59 97.1337 35.4333 97.2871 35.3C97.4404 35.1633 97.6287 35.055 97.8521 34.975C98.0754 34.895 98.3304 34.855 98.6171 34.855C98.9504 34.855 99.2487 34.9083 99.5121 35.015C99.7787 35.1183 100.009 35.2617 100.202 35.445L100.002 35.77Z" transform="translate(-14 -13)" fill="white"/>
</svg>
