<?xml version="1.0" encoding="UTF-8"?>
<svg width="122px" height="39px" viewBox="0 0 122 39" version="1.1" xmlns="http://www.w3.org/2000/svg" xmlns:xlink="http://www.w3.org/1999/xlink">
    <!-- Generator: Sketch 52.4 (67378) - http://www.bohemiancoding.com/sketch -->
    <title>mb.svg</title>
    <desc>Created with Sketch.</desc>
    <g id="mb.svg" stroke="none" stroke-width="1" fill="none" fill-rule="evenodd">
        <g id="mb" fill="#1B1A18" fill-rule="nonzero">
            <path d="M9.38698458,10.0867816 C9.5548418,10.4034257 9.71443915,10.7325689 9.86563665,11.0742112 C10.025234,11.4158536 10.1764315,11.7658286 10.3193691,12.1241365 C10.4620268,11.7574959 10.6132243,11.4033545 10.7729616,11.0617121 C10.932559,10.7117371 11.0963563,10.3742611 11.2643535,10.0492842 L15.9766755,0.849939463 C16.0606741,0.691617406 16.1445327,0.570792679 16.2285313,0.48746528 C16.3210698,0.395805142 16.4218681,0.329143223 16.5310663,0.287479524 C16.6402645,0.245815825 16.7620625,0.220817606 16.8963202,0.212484866 C17.0392579,0.204152126 17.2030552,0.199985756 17.3878521,0.199985756 L20.6385983,0.199985756 L20.6385983,18.4111887 L16.8838604,18.4111887 L16.8838604,7.93693469 C16.8838604,7.42863756 16.90906,6.87867673 16.9593192,6.2870522 L12.0959397,15.6488854 C11.9447422,15.9405313 11.7389456,16.1613489 11.4785499,16.3113382 C11.2265541,16.4613275 10.9367589,16.5363222 10.6091643,16.5363222 L10.0295739,16.5363222 C9.70183936,16.5363222 9.40784423,16.4613275 9.14758854,16.3113382 C8.89545271,16.1613489 8.69385605,15.9405313 8.54265856,15.6488854 L3.6539395,6.27455309 C3.68767894,6.56619899 3.71287852,6.85784488 3.72967825,7.14949078 C3.74647797,7.43280393 3.75487783,7.69528524 3.75487783,7.93693469 L3.75487783,18.4111887 L0,18.4111887 L0,0.199985756 L3.25074618,0.199985756 C3.43568311,0.199985756 3.59528047,0.204152126 3.72967825,0.212484866 C3.87247588,0.220817606 3.9984738,0.245815825 4.10767199,0.287479524 C4.21673018,0.329143223 4.31332858,0.395805142 4.39746719,0.48746528 C4.48972566,0.570792679 4.5779242,0.691617406 4.66206281,0.849939463 L9.38698458,10.0867816 Z M40.7592051,18.4111887 L37.4580598,18.4111887 C37.0884659,18.4111887 36.781871,18.3278613 36.538275,18.1612065 C36.3030789,17.9862189 36.1392816,17.7654013 36.0468832,17.4987537 L34.9633011,14.3239798 L27.9830167,14.3239798 L26.8994346,17.4987537 C26.815436,17.7320704 26.6516387,17.9445552 26.4080428,18.1362082 C26.1644468,18.3195285 25.8662517,18.4111887 25.5134576,18.4111887 L22.1871126,18.4111887 L29.293395,0.199985756 L33.6529228,0.199985756 L40.7592051,18.4111887 Z M28.9658004,11.4491845 L33.9805174,11.4491845 L32.2921453,6.46203974 C32.1829471,6.14539563 32.0527493,5.7745887 31.9015518,5.34961897 C31.7587542,4.9163165 31.6159565,4.44968307 31.4731589,3.94971868 C31.3387611,4.45801581 31.2001634,4.92881561 31.0573658,5.36211808 C30.9145681,5.79542055 30.7801704,6.17039385 30.6541724,6.48703796 L28.9658004,11.4491845 Z M46.9156032,18.4111887 L42.6316741,18.4111887 L42.6316741,0.199985756 L46.9156032,0.199985756 L46.9156032,18.4111887 Z M52.5681496,0.199985756 C52.7529465,0.199985756 52.908344,0.208318496 53.0343419,0.224983976 C53.1603398,0.241649455 53.2737379,0.274980415 53.3745363,0.324976854 C53.4753346,0.366640553 53.571933,0.429136101 53.6643315,0.5124635 C53.7567299,0.595790898 53.8617282,0.708282886 53.9793262,0.849939463 L62.6983819,11.7866605 C62.6647824,11.4366854 62.6395829,11.0992095 62.6227831,10.7742326 C62.6059834,10.440923 62.5975835,10.1284453 62.5975835,9.83679937 L62.5975835,0.199985756 L66.3523214,0.199985756 L66.3523214,18.4111887 L64.1347581,18.4111887 C63.8071635,18.4111887 63.5299681,18.3611922 63.3031719,18.2611993 C63.0763756,18.1612065 62.8579792,17.9778862 62.6479827,17.7112385 L53.991926,6.86201125 C54.0171256,7.17865537 54.0381253,7.49113311 54.054925,7.79944448 C54.0717247,8.09942312 54.0801246,8.38273627 54.0801246,8.64938395 L54.0801246,18.4111887 L50.3253867,18.4111887 L50.3253867,0.199985756 L52.5681496,0.199985756 Z M69.3727714,18.4111887 L69.3727714,0.199985756 L76.1262595,0.199985756 C77.3946385,0.199985756 78.4740207,0.316644114 79.3644059,0.549960829 C80.2547912,0.783277544 80.9813792,1.11242077 81.5441698,1.5373905 C82.1069605,1.96236023 82.5143538,2.4789901 82.7663496,3.08728011 C83.0267453,3.69557012 83.1569431,4.37468841 83.1569431,5.124635 C83.1569431,5.53293925 83.0981441,5.92874439 82.9805461,6.31205042 C82.862948,6.68702372 82.6781511,7.04116516 82.4261552,7.37447475 C82.1741594,7.70778435 81.8507648,8.01192935 81.4559713,8.28690976 C81.0611778,8.55355744 80.5865857,8.78687415 80.0321949,8.98685991 C81.2417748,9.2785058 82.13636,9.75347197 82.7159504,10.4117584 C83.2955408,11.0617121 83.585336,11.8991525 83.585336,12.9240795 C83.585336,13.6990243 83.4341385,14.4198063 83.1317436,15.0864255 C82.8293486,15.7530447 82.3841559,16.3363364 81.7961657,16.8363008 C81.2165753,17.3279325 80.4983872,17.7154049 79.6416013,17.998718 C78.7848155,18.2736985 77.8062317,18.4111887 76.70585,18.4111887 L69.3727714,18.4111887 Z M73.6315009,10.6867388 L73.6315009,15.2239157 L76.6302512,15.2239157 C77.1930419,15.2239157 77.6508343,15.1530874 78.0036285,15.0114308 C78.3648225,14.8697742 78.6462178,14.686454 78.8478145,14.46147 C79.0494111,14.236486 79.1880089,13.9823374 79.2636076,13.6990243 C79.3392064,13.4157111 79.3770057,13.1282316 79.3770057,12.8365857 C79.3770057,12.5032761 79.3308065,12.2032975 79.238408,11.9366498 C79.1544094,11.6700021 79.0032119,11.4450182 78.7848155,11.2616979 C78.574819,11.0783776 78.2934237,10.936721 77.9406295,10.8367282 C77.5878353,10.7367353 77.1426427,10.6867388 76.6050516,10.6867388 L73.6315009,10.6867388 Z M73.6315009,7.86194003 L75.8490641,7.86194003 C76.3194563,7.86194003 76.7436493,7.82860907 77.1216431,7.76194715 C77.4996368,7.69528524 77.8188315,7.57862688 78.0792272,7.41197208 C78.3480228,7.24531729 78.5496194,7.01616694 78.6840172,6.72452105 C78.8268148,6.43287515 78.8982137,6.0662346 78.8982137,5.62459939 C78.8982137,5.19129692 78.8436146,4.8329891 78.7344164,4.54967595 C78.6252182,4.25803005 78.457221,4.02471334 78.2304247,3.8497258 C78.0036285,3.67473827 77.7138333,3.54974717 77.3610391,3.47475251 C77.0166448,3.39975785 76.6050516,3.36226052 76.1262595,3.36226052 L73.6315009,3.36226052 L73.6315009,7.86194003 Z M104.028498,9.29933765 C104.028498,10.6159105 103.797501,11.8408233 103.335509,12.9740759 C102.881917,14.1073285 102.239327,15.0947582 101.407741,15.9363649 C100.576155,16.7696389 99.5723713,17.423759 98.3963908,17.8987252 C97.2288101,18.3736913 95.9310316,18.6111744 94.5030553,18.6111744 C93.0750789,18.6111744 91.7731005,18.3736913 90.5971199,17.8987252 C89.4211394,17.423759 88.4131561,16.7696389 87.57317,15.9363649 C86.7415838,15.0947582 86.0947945,14.1073285 85.6328021,12.9740759 C85.1792097,11.8408233 84.9524134,10.6159105 84.9524134,9.29933765 C84.9524134,7.98276476 85.1792097,6.757852 85.6328021,5.62459939 C86.0947945,4.49134677 86.7415838,3.50808347 87.57317,2.67480949 C88.4131561,1.8415355 89.4211394,1.18741543 90.5971199,0.712449256 C91.7731005,0.237483085 93.0750789,0 94.5030553,0 C95.9310316,0 97.2288101,0.241649455 98.3963908,0.724948366 C99.5723713,1.19991454 100.576155,1.85403461 101.407741,2.6873086 C102.239327,3.52058258 102.881917,4.50384588 103.335509,5.6370985 C103.797501,6.77035111 104.028498,7.9910975 104.028498,9.29933765 Z M99.6689697,9.29933765 C99.6689697,8.39940175 99.5513717,7.59112599 99.3161756,6.87451036 C99.0809795,6.149562 98.7407851,5.53710562 98.2955925,5.03714123 C97.8587997,4.53717684 97.3212086,4.15387081 96.6828192,3.88722313 C96.0444298,3.62057546 95.3178418,3.48725162 94.5030553,3.48725162 C93.6798689,3.48725162 92.9448811,3.62057546 92.2980918,3.88722313 C91.6597024,4.15387081 91.1179113,4.53717684 90.6727187,5.03714123 C90.2359259,5.53710562 89.8999315,6.149562 89.6647354,6.87451036 C89.4295393,7.59112599 89.3119412,8.39940175 89.3119412,9.29933765 C89.3119412,10.2076063 89.4295393,11.0242148 89.6647354,11.7491632 C89.8999315,12.4657788 90.2359259,13.0740688 90.6727187,13.5740332 C91.1179113,14.0739976 91.6597024,14.4573036 92.2980918,14.7239513 C92.9448811,14.9822662 93.6798689,15.1114237 94.5030553,15.1114237 C95.3178418,15.1114237 96.0444298,14.9822662 96.6828192,14.7239513 C97.3212086,14.4573036 97.8587997,14.0739976 98.2955925,13.5740332 C98.7407851,13.0740688 99.0809795,12.4657788 99.3161756,11.7491632 C99.5513717,11.0242148 99.6689697,10.2076063 99.6689697,9.29933765 Z M110.218915,9.04935546 L104.536409,0.199985756 L108.795139,0.199985756 C109.072334,0.199985756 109.273931,0.237483085 109.399929,0.312477744 C109.534326,0.379139662 109.651924,0.49579802 109.752723,0.662452817 L113.406662,6.7995157 C113.448662,6.69119009 113.494861,6.58703084 113.54526,6.48703796 C113.604059,6.38704508 113.667058,6.28288583 113.734257,6.17456022 L116.934604,0.724948366 C117.1446,0.374973293 117.430196,0.199985756 117.79139,0.199985756 L121.874002,0.199985756 L116.115617,8.86186881 L122,18.4111887 L117.740991,18.4111887 C117.463795,18.4111887 117.236999,18.3445267 117.060602,18.2112029 C116.892605,18.0778791 116.758207,17.919557 116.657408,17.7362367 L112.978269,11.3616908 C112.91107,11.545011 112.835472,11.7033331 112.751473,11.8366569 L109.32433,17.7362367 C109.223532,17.9112243 109.089134,18.0695463 108.921137,18.2112029 C108.753139,18.3445267 108.543143,18.4111887 108.291147,18.4111887 L104.309613,18.4111887 L110.218915,9.04935546 Z M0.837606131,38.8472331 L0.837606131,29.4312371 L1.57959385,29.4312371 C1.75697091,29.4312371 1.86896905,29.5169254 1.91558828,29.6881632 L2.02058654,30.5214372 C2.32396152,30.1557688 2.66919581,29.861762 3.05656939,29.6395556 C3.4485629,29.4173492 3.89893544,29.306246 4.40754702,29.306246 C4.8135403,29.306246 5.1821542,29.3849904 5.51352871,29.5423403 C5.84490322,29.6951072 6.12713855,29.9242575 6.36051469,30.2297913 C6.59389082,30.5307421 6.77350785,30.9057154 6.89950576,31.3547112 C7.02550368,31.803707 7.08850263,32.3199202 7.08850263,32.903212 C7.08850263,33.4216473 7.01850379,33.9055017 6.87850611,34.3544975 C6.73850843,34.7989103 6.53789175,35.1854106 6.27651608,35.5141372 C6.01514041,35.8381419 5.69314574,36.095068 5.31053207,36.2849156 C4.93253833,36.4700413 4.5055454,36.5626736 4.02955328,36.5626736 C3.59094054,36.5626736 3.21518676,36.4908732 2.90257194,36.3474112 C2.59457704,36.2039491 2.32158156,36.0002137 2.0835855,35.7363436 L2.0835855,38.8472331 L0.837606131,38.8472331 Z M3.99455386,30.3061748 C3.58856058,30.3061748 3.23156649,30.3988071 2.92357159,30.5839328 C2.62019662,30.7690585 2.34020125,31.0307065 2.0835855,31.3685991 L2.0835855,34.7711345 C2.31220172,35.0766683 2.56195758,35.2919308 2.8325731,35.4169219 C3.10794854,35.541913 3.41356348,35.6044085 3.74955792,35.6044085 C4.40754702,35.6044085 4.91391864,35.3706752 5.26853277,34.9030696 C5.6231469,34.435464 5.80052396,33.7688448 5.80052396,32.903212 C5.80052396,32.4449113 5.75852465,32.0514671 5.67452604,31.7227405 C5.59514736,31.394014 5.47852929,31.1255609 5.32453184,30.9172424 C5.17053439,30.7043409 4.98153752,30.549213 4.75754123,30.4519977 C4.53354494,30.3547824 4.27916915,30.3061748 3.99455386,30.3061748 Z M9.94809529,26.2370202 L9.94809529,36.4654583 L8.70211592,36.4654583 L8.70211592,26.2370202 L9.94809529,26.2370202 Z M17.3520127,36.4654583 L16.7990219,36.4654583 C16.6776439,36.4654583 16.5796455,36.4469874 16.5050267,36.4099067 C16.430268,36.372826 16.3812688,36.2942205 16.3580292,36.1738124 L16.2180315,35.5210811 C16.0312746,35.6877359 15.8492776,35.8381419 15.6720405,35.9724379 C15.4946634,36.102012 15.3080465,36.2131152 15.1120498,36.3057475 C14.916053,36.3936579 14.7060565,36.4608753 14.4820602,36.507122 C14.2626838,36.5533687 14.0176879,36.5765615 13.7470724,36.5765615 C13.4716969,36.5765615 13.2127012,36.5394808 12.9700852,36.4654583 C12.7320892,36.3867139 12.5243326,36.2710277 12.3470956,36.1182608 C12.1697185,35.9654939 12.0273409,35.7734243 11.9201026,35.541913 C11.8173443,35.3058187 11.7661052,35.0280607 11.7661052,34.708639 C11.7661052,34.430881 11.8431039,34.16465 11.9971014,33.9100848 C12.1510988,33.6507977 12.3983347,33.4216473 12.7390891,33.2226337 C13.0843234,33.0236201 13.5346959,32.8615483 14.0900667,32.7365572 C14.6452975,32.6069831 15.3242863,32.5328217 16.127033,32.5143508 L16.127033,31.9657788 C16.127033,31.4195677 16.0080349,31.0075137 15.7700389,30.7297557 C15.5366628,30.4474147 15.1890485,30.3061748 14.7270562,30.3061748 C14.4236812,30.3061748 14.1670654,30.3454775 13.9570689,30.4242219 C13.7516923,30.4982444 13.5720753,30.5839328 13.4180778,30.6811481 C13.2687003,30.7737804 13.1380825,30.8593298 13.0260843,30.9380742 C12.9187061,31.0120967 12.8113279,31.0491774 12.7040897,31.0491774 C12.620091,31.0491774 12.5453323,31.0283456 12.4800934,30.9866819 C12.4193344,30.9404352 12.3703352,30.8848836 12.3330958,30.8200271 L12.1090995,30.4242219 C12.501093,30.0492486 12.923326,29.7691297 13.3760785,29.584004 C13.828691,29.3988783 14.3303027,29.306246 14.8810536,29.306246 C15.277667,29.306246 15.6300412,29.3711025 15.9380361,29.5006766 C16.246031,29.6302507 16.5050267,29.8107934 16.7150232,30.0423047 C16.9250198,30.273816 17.0836371,30.553796 17.1910154,30.8825226 C17.2982536,31.2112492 17.3520127,31.5723346 17.3520127,31.9657788 L17.3520127,36.4654583 Z M14.1180662,35.7085678 C14.3373026,35.7085678 14.5380593,35.6877359 14.7200563,35.6460722 C14.9020533,35.5998255 15.0722904,35.53733 15.2310478,35.4585856 C15.3942851,35.3752582 15.5482826,35.2756819 15.6930402,35.1599957 C15.8422777,35.0443095 15.9870353,34.9123745 16.127033,34.7641906 L16.127033,33.2990172 C15.5530425,33.3174881 15.0652906,33.3638737 14.6640572,33.4378962 C14.2626838,33.5073357 13.9360693,33.599968 13.6840734,33.7156542 C13.4320776,33.8313404 13.2477007,33.9679973 13.1310826,34.1253472 C13.0190844,34.2826971 12.9630854,34.4586568 12.9630854,34.6530874 C12.9630854,34.8382131 12.9933249,34.9979239 13.0540839,35.1322199 C13.1147029,35.2665159 13.1963215,35.3776191 13.2990798,35.4655295 C13.4016981,35.5488569 13.5230761,35.6113525 13.6630738,35.6530162 C13.8030715,35.6900969 13.9546889,35.7085678 14.1180662,35.7085678 Z M24.0765214,30.6811481 C24.039282,30.7321167 24.0019026,30.7714194 23.9645232,30.7991952 C23.9272838,30.826971 23.8735247,30.8408589 23.8035259,30.8408589 C23.733527,30.8408589 23.6565283,30.8130831 23.5725297,30.7575315 C23.493291,30.6973969 23.3905327,30.6325404 23.2645348,30.5631009 C23.1385369,30.4936614 22.9845394,30.4311659 22.8025424,30.3756143 C22.6253054,30.3154797 22.405929,30.2853429 22.1445533,30.2853429 C21.7993191,30.2853429 21.4935641,30.3478385 21.2275685,30.4728296 C20.9615729,30.5932377 20.7375766,30.7690585 20.5555797,31.0005698 C20.3783426,31.232081 20.2429648,31.5120611 20.1495864,31.8407877 C20.0609678,32.1695143 20.0165886,32.5375436 20.0165886,32.9448757 C20.0165886,33.3708176 20.0655878,33.7503739 20.1635861,34.0836835 C20.2615845,34.4124101 20.3993422,34.6901681 20.5765793,34.9169575 C20.7539564,35.1391639 20.9685728,35.3104017 21.2205686,35.4308098 C21.4773244,35.546496 21.7643196,35.6044085 22.0815544,35.6044085 C22.3849294,35.6044085 22.6345452,35.5696888 22.830542,35.5002493 C23.0265387,35.4262268 23.189916,35.3451214 23.3205339,35.257211 C23.4512917,35.1693006 23.5585299,35.0905562 23.6425285,35.0211167 C23.7265272,34.9470942 23.8105258,34.9100135 23.8945244,34.9100135 C24.0019026,34.9100135 24.0812813,34.9493163 24.1325204,35.0280607 L24.4825146,35.4794174 C24.1745197,35.8543907 23.7895261,36.1297878 23.3275338,36.3057475 C22.8655414,36.4769853 22.3779295,36.5626736 21.864558,36.5626736 C21.4213253,36.5626736 21.0083322,36.4817071 20.6255785,36.3196354 C20.2475848,36.1575636 19.9185902,35.9238302 19.6385948,35.6182964 C19.3585995,35.3081796 19.1369831,34.9284844 18.9736058,34.4794886 C18.8149885,34.0304928 18.7356098,33.5188626 18.7356098,32.9448757 C18.7356098,32.4217185 18.8079886,31.938003 18.9526062,31.4935902 C19.1019837,31.0491774 19.3166002,30.6672602 19.5965955,30.3478385 C19.8813508,30.0238338 20.231345,29.7714906 20.6465781,29.5909479 C21.0619513,29.4104052 21.5379434,29.3201339 22.0745545,29.3201339 C22.5693063,29.3201339 23.007919,29.4011003 23.3905327,29.5631721 C23.7732864,29.720522 24.1115208,29.9450894 24.4055159,30.2367353 L24.0765214,30.6811481 Z M28.5816468,29.3201339 C29.0062597,29.3201339 29.3982532,29.3919343 29.7576273,29.5353963 C30.1170013,29.6742753 30.4272362,29.8780108 30.6886119,30.1464639 C30.9499875,30.410334 31.1529842,30.7390606 31.2976018,31.1325048 C31.4469793,31.521366 31.5215981,31.9657788 31.5215981,32.4657432 C31.5215981,32.6601738 31.5005984,32.7897479 31.4585991,32.8546044 C31.4165998,32.9194609 31.3372211,32.9518197 31.2206031,32.9518197 L26.5026812,32.9518197 C26.512061,33.3962325 26.57268,33.7827327 26.6846782,34.1114593 C26.7966763,34.4401859 26.9506738,34.7155829 27.1466705,34.9377893 C27.3426673,35.1554127 27.5760434,35.3197066 27.8466589,35.4308098 C28.1172745,35.53733 28.4206494,35.5905206 28.7566439,35.5905206 C29.0692587,35.5905206 29.3376342,35.5558009 29.5616305,35.4863614 C29.7902468,35.4123389 29.9862435,35.3335945 30.1496208,35.2502671 C30.3129981,35.1669397 30.4482359,35.0905562 30.5556141,35.0211167 C30.6676122,34.9470942 30.7632306,34.9100135 30.8426093,34.9100135 C30.9452276,34.9100135 31.0246063,34.9493163 31.0806054,35.0280607 L31.4305996,35.4794174 C31.2766021,35.6645431 31.0922252,35.8266149 30.8776087,35.9654939 C30.6629923,36.0997899 30.4319961,36.2108931 30.1846202,36.2988035 C29.9420042,36.3867139 29.6900084,36.4515704 29.4286327,36.4932341 C29.1672571,36.5394808 28.9082614,36.5626736 28.6516456,36.5626736 C28.1616537,36.5626736 27.7090412,36.4817071 27.2936681,36.3196354 C26.8830549,36.1529806 26.5260608,35.9123033 26.2226858,35.5974646 C25.9240708,35.2780429 25.6906946,34.8845987 25.5226974,34.4169931 C25.3547002,33.9493875 25.2707016,33.4124813 25.2707016,32.8059967 C25.2707016,32.3153372 25.3453203,31.8570365 25.4946979,31.4310947 C25.6486953,31.0051528 25.8680717,30.6371234 26.152687,30.3270066 C26.4373023,30.0121679 26.7850565,29.7669076 27.1956697,29.5909479 C27.6062829,29.4104052 28.0682753,29.3201339 28.5816468,29.3201339 Z M28.6096463,30.2297913 C28.0076563,30.2297913 27.5340441,30.4033901 27.1886698,30.7505876 C26.8432955,31.0932021 26.6286791,31.5699736 26.5446805,32.1810412 L30.4016166,32.1810412 C30.4016166,31.8939783 30.3619973,31.6324692 30.2826186,31.3963749 C30.2032399,31.1556976 30.0866218,30.9496012 29.9326244,30.7783634 C29.7786269,30.6024037 29.5896301,30.4682466 29.3656338,30.3756143 C29.1462574,30.278399 28.8942616,30.2297913 28.6096463,30.2297913 Z M36.1033022,36.4654583 L36.1033022,30.4867175 L35.3193152,30.3964461 C35.2213168,30.3732533 35.1396982,30.3385336 35.0743193,30.2922869 C35.0137003,30.2413183 34.9833208,30.1696567 34.9833208,30.0770244 L34.9833208,29.5701161 L36.1033022,29.5701161 L36.1033022,28.889609 C36.1033022,28.4868599 36.1593013,28.1303575 36.2712994,27.8202407 C36.3880575,27.505402 36.5512948,27.2415319 36.7612913,27.0286304 C36.9760478,26.8110071 37.2326635,26.6467132 37.5312786,26.53561 C37.8300336,26.4245068 38.1660281,26.3689552 38.5392619,26.3689552 C38.8566366,26.3689552 39.1506318,26.4152019 39.4212473,26.5078342 L39.3932478,27.1258457 C39.3886278,27.218478 39.3490085,27.2740296 39.2742497,27.2925005 C39.199631,27.3109714 39.0946327,27.3202763 38.9592549,27.3202763 L38.7422585,27.3202763 C38.5276421,27.3202763 38.3316453,27.3480521 38.1542683,27.4036037 C37.9816511,27.4591553 37.8322736,27.5494267 37.7062757,27.6744178 C37.5802778,27.7994089 37.4822794,27.9637027 37.4122806,28.1674382 C37.3470416,28.3711737 37.3142822,28.623378 37.3142822,28.9243288 L37.3142822,29.5701161 L39.3652482,29.5701161 L39.3652482,30.4658856 L37.3562815,30.4658856 L37.3562815,36.4654583 L36.1033022,36.4654583 Z M43.4100612,29.3201339 C43.9280527,29.3201339 44.3946649,29.4058222 44.8100381,29.57706 C45.2300311,29.7482978 45.5846452,29.9913361 45.8740204,30.3061748 C46.1680156,30.6210135 46.3920119,31.0029307 46.5460093,31.4519265 C46.7046267,31.8963393 46.7840054,32.3939427 46.7840054,32.9448757 C46.7840054,33.5003917 46.7046267,34.0003561 46.5460093,34.4447689 C46.3920119,34.8891817 46.1680156,35.268738 45.8740204,35.5835767 C45.5846452,35.8984154 45.2300311,36.1414536 44.8100381,36.3126914 C44.3946649,36.4793462 43.9280527,36.5626736 43.4100612,36.5626736 C42.8920698,36.5626736 42.4230776,36.4793462 42.0030845,36.3126914 C41.5877114,36.1414536 41.2330973,35.8984154 40.9391022,35.5835767 C40.645107,35.268738 40.4187308,34.8891817 40.2601134,34.4447689 C40.101356,34.0003561 40.0221173,33.5003917 40.0221173,32.9448757 C40.0221173,32.3939427 40.101356,31.8963393 40.2601134,31.4519265 C40.4187308,31.0029307 40.645107,30.6210135 40.9391022,30.3061748 C41.2330973,29.9913361 41.5877114,29.7482978 42.0030845,29.57706 C42.4230776,29.4058222 42.8920698,29.3201339 43.4100612,29.3201339 Z M43.4100612,35.5974646 C44.1100497,35.5974646 44.632661,35.3659533 44.9780353,34.9030696 C45.3232696,34.435464 45.4960267,33.7850937 45.4960267,32.9518197 C45.4960267,32.1139627 45.3232696,31.4612314 44.9780353,30.9936258 C44.632661,30.5260202 44.1100497,30.2922869 43.4100612,30.2922869 C43.0553071,30.2922869 42.7473122,30.3524215 42.4860765,30.4728296 C42.2247009,30.5932377 42.0053245,30.7668364 41.8280874,30.9936258 C41.6553303,31.2204152 41.5247125,31.5005341 41.4360939,31.8338437 C41.3520953,32.1625703 41.310096,32.5351827 41.310096,32.9518197 C41.310096,33.3684567 41.3520953,33.741069 41.4360939,34.0697956 C41.5247125,34.3985222 41.6553303,34.6762802 41.8280874,34.9030696 C42.0053245,35.125276 42.2247009,35.2965138 42.4860765,35.4169219 C42.7473122,35.53733 43.0553071,35.5974646 43.4100612,35.5974646 Z M48.31922,36.4654583 L48.31922,29.4312371 L49.0332081,29.4312371 C49.1685859,29.4312371 49.2618244,29.4566519 49.3132035,29.5076205 C49.3645827,29.5585891 49.3995821,29.6464995 49.4182018,29.7714906 L49.5022004,30.8686347 C49.7448164,30.3779752 50.0435714,29.996058 50.3981855,29.722883 C50.7575596,29.445125 51.1775526,29.306246 51.6581647,29.306246 C51.8541614,29.306246 52.0315385,29.3294388 52.1901559,29.3756855 C52.3487732,29.4173492 52.4957708,29.4774838 52.6311486,29.5562282 L52.4701512,30.4797735 C52.4375318,30.5954597 52.365153,30.6533723 52.2531548,30.6533723 C52.1877759,30.6533723 52.0875376,30.6325404 51.9521598,30.5908767 C51.8167821,30.54463 51.6277852,30.5214372 51.3851692,30.5214372 C50.9511764,30.5214372 50.5871824,30.6464283 50.2931873,30.8964105 C50.0038121,31.1463927 49.7611961,31.509839 49.5651993,31.9866106 L49.5651993,36.4654583 L48.31922,36.4654583 Z M59.0595621,29.3131899 C59.367557,29.3131899 59.6545523,29.3479097 59.9205479,29.4173492 C60.1911634,29.4822057 60.4361593,29.579421 60.6555357,29.7089951 L62.5805038,29.7089951 L62.5805038,30.1672958 C62.5805038,30.3200627 62.4825055,30.417278 62.2865087,30.4589417 L61.481522,30.5700449 C61.6401394,30.8709957 61.7195181,31.2065273 61.7195181,31.5769176 C61.7195181,31.9195321 61.6518992,32.2320098 61.5165214,32.5143508 C61.3859036,32.7921088 61.2015267,33.0305641 60.9635306,33.2295777 C60.7301545,33.4285913 60.4501591,33.5813582 60.1235445,33.6878784 C59.8015498,33.7943985 59.4469357,33.8475892 59.0595621,33.8475892 C58.7281876,33.8475892 58.4155728,33.8082864 58.1215777,33.7295421 C57.9722001,33.8221743 57.857962,33.9216117 57.7785833,34.0281319 C57.7039646,34.1346521 57.6665852,34.2388113 57.6665852,34.3406096 C57.6665852,34.5072644 57.7342041,34.6346165 57.8695818,34.7225269 C58.0049596,34.8058543 58.1845766,34.8659889 58.4085729,34.9030696 C58.6325692,34.9401503 58.886945,34.9632042 59.1715603,34.9725091 C59.4561756,34.981814 59.7455508,34.9979239 60.0395459,35.0211167 C60.338161,35.0395876 60.6299161,35.0743074 60.9145314,35.125276 C61.1991467,35.1762446 61.4535225,35.259572 61.6775188,35.3752582 C61.9015151,35.4909444 62.0811321,35.6506552 62.2165099,35.8543907 C62.3518876,36.0581262 62.4195065,36.3219963 62.4195065,36.646001 C62.4195065,36.9469518 62.3425078,37.2385977 62.1885103,37.5209387 C62.0391328,37.8032797 61.8221364,38.0532619 61.5375211,38.2708853 C61.2529058,38.4930917 60.9051516,38.6690513 60.4945384,38.7986255 C60.0839252,38.9329214 59.6195529,39 59.1015614,39 C58.58357,39 58.1285775,38.9490314 57.736584,38.8472331 C57.3492104,38.7454348 57.0272158,38.6087779 56.7706,38.4375401 C56.5139843,38.2663023 56.3202275,38.0671498 56.1896096,37.8403604 C56.0636117,37.618154 56.0006128,37.3844206 56.0006128,37.1390214 C56.0006128,36.7918239 56.110231,36.4978171 56.3296073,36.2571398 C56.5536036,36.0117406 56.8592186,35.81731 57.2465921,35.673848 C57.0459755,35.5812157 56.8849781,35.4585856 56.7636001,35.3058187 C56.6469821,35.1484688 56.588603,34.9401503 56.588603,34.6808632 C56.588603,34.5790649 56.6072227,34.4749056 56.6446021,34.3683854 C56.6819815,34.2572822 56.7379806,34.14854 56.8125993,34.0420198 C56.891978,33.9354996 56.9875964,33.8337013 57.0995946,33.736486 C57.2115927,33.6392707 57.3422106,33.5535824 57.4915881,33.4795599 C57.1415939,33.2851293 56.8662184,33.0282031 56.6656018,32.7087814 C56.469605,32.3847767 56.3716066,32.0074425 56.3716066,31.5769176 C56.3716066,31.2343031 56.4369856,30.9241863 56.5676034,30.6464283 C56.7029811,30.3640873 56.8895981,30.1256321 57.1275941,29.9312015 C57.3655902,29.7321879 57.6479655,29.579421 57.9745801,29.4729008 C58.3059546,29.3663806 58.6675686,29.3131899 59.0595621,29.3131899 Z M61.2715255,36.8473755 C61.2715255,36.6714159 61.2225263,36.5303148 61.1245279,36.4237946 C61.0265296,36.3172744 60.8935318,36.236308 60.7255345,36.1807564 C60.5575373,36.1206218 60.3639205,36.0765971 60.1445442,36.0488213 C59.9251678,36.0210455 59.6941716,36.0025746 59.4515556,35.9932697 C59.2089397,35.9793818 58.9615638,35.9654939 58.7095679,35.951606 C58.4575721,35.9377181 58.2171961,35.9123033 57.9885799,35.8752226 C57.7225843,36.0002137 57.5055879,36.1529806 57.3375906,36.3335233 C57.1742133,36.5140659 57.0925947,36.7293284 57.0925947,36.9793106 C57.0925947,37.1366605 57.132214,37.2824834 57.2115927,37.4167794 C57.2955913,37.5556584 57.4215892,37.6737056 57.5895865,37.7709209 C57.7575837,37.8727192 57.9675802,37.9514636 58.219576,38.0070152 C58.4761918,38.0671498 58.7771868,38.0972865 59.1225611,38.0972865 C59.4585555,38.0972865 59.7595505,38.0671498 60.0255461,38.0070152 C60.2915417,37.9468806 60.515538,37.8611922 60.697535,37.750089 C60.8841519,37.6389858 61.0265296,37.5070508 61.1245279,37.3542839 C61.2225263,37.201517 61.2715255,37.0325012 61.2715255,36.8473755 Z M59.0595621,33.0282031 C59.311558,33.0282031 59.5331743,32.9934834 59.7245511,32.9240439 C59.9205479,32.8546044 60.0839252,32.7573891 60.214543,32.632398 C60.3451608,32.5074069 60.4431592,32.359223 60.5085381,32.1879852 C60.5739171,32.0120255 60.6065365,31.8199558 60.6065365,31.6116373 C60.6065365,31.1811125 60.4735387,30.838498 60.2075431,30.5839328 C59.9461674,30.3293676 59.5635538,30.2020155 59.0595621,30.2020155 C58.5601904,30.2020155 58.1775767,30.3293676 57.9115811,30.5839328 C57.6502055,30.838498 57.5195876,31.1811125 57.5195876,31.6116373 C57.5195876,31.8199558 57.5522071,32.0120255 57.617586,32.1879852 C57.6875848,32.359223 57.7879632,32.5074069 57.918581,32.632398 C58.0491989,32.7573891 58.2101962,32.8546044 58.401573,32.9240439 C58.5929499,32.9934834 58.8121862,33.0282031 59.0595621,33.0282031 Z M66.6927957,29.3201339 C67.2107872,29.3201339 67.6775394,29.4058222 68.0927726,29.57706 C68.5127656,29.7482978 68.8675197,29.9913361 69.1567549,30.3061748 C69.4507501,30.6210135 69.6747464,31.0029307 69.8287438,31.4519265 C69.9875012,31.8963393 70.0667399,32.3939427 70.0667399,32.9448757 C70.0667399,33.5003917 69.9875012,34.0003561 69.8287438,34.4447689 C69.6747464,34.8891817 69.4507501,35.268738 69.1567549,35.5835767 C68.8675197,35.8984154 68.5127656,36.1414536 68.0927726,36.3126914 C67.6775394,36.4793462 67.2107872,36.5626736 66.6927957,36.5626736 C66.1748043,36.5626736 65.7058121,36.4793462 65.285819,36.3126914 C64.8705859,36.1414536 64.5158318,35.8984154 64.2218367,35.5835767 C63.9278415,35.268738 63.7016053,34.8891817 63.5428479,34.4447689 C63.3842305,34.0003561 63.3048518,33.5003917 63.3048518,32.9448757 C63.3048518,32.3939427 63.3842305,31.8963393 63.5428479,31.4519265 C63.7016053,31.0029307 63.9278415,30.6210135 64.2218367,30.3061748 C64.5158318,29.9913361 64.8705859,29.7482978 65.285819,29.57706 C65.7058121,29.4058222 66.1748043,29.3201339 66.6927957,29.3201339 Z M66.6927957,35.5974646 C67.3927842,35.5974646 67.9155355,35.3659533 68.2607698,34.9030696 C68.6061441,34.435464 68.7787612,33.7850937 68.7787612,32.9518197 C68.7787612,32.1139627 68.6061441,31.4612314 68.2607698,30.9936258 C67.9155355,30.5260202 67.3927842,30.2922869 66.6927957,30.2922869 C66.3381816,30.2922869 66.0301867,30.3524215 65.768811,30.4728296 C65.5075754,30.5932377 65.288199,30.7668364 65.1108219,30.9936258 C64.9382048,31.2204152 64.807587,31.5005341 64.7188284,31.8338437 C64.6348298,32.1625703 64.5928305,32.5351827 64.5928305,32.9518197 C64.5928305,33.3684567 64.6348298,33.741069 64.7188284,34.0697956 C64.807587,34.3985222 64.9382048,34.6762802 65.1108219,34.9030696 C65.288199,35.125276 65.5075754,35.2965138 65.768811,35.4169219 C66.0301867,35.53733 66.3381816,35.5974646 66.6927957,35.5974646 Z M74.4720469,29.3201339 C74.9900384,29.3201339 75.4566506,29.4058222 75.8720238,29.57706 C76.2920168,29.7482978 76.6466309,29.9913361 76.9360061,30.3061748 C77.2300013,30.6210135 77.4539976,31.0029307 77.607995,31.4519265 C77.7666124,31.8963393 77.8459911,32.3939427 77.8459911,32.9448757 C77.8459911,33.5003917 77.7666124,34.0003561 77.607995,34.4447689 C77.4539976,34.8891817 77.2300013,35.268738 76.9360061,35.5835767 C76.6466309,35.8984154 76.2920168,36.1414536 75.8720238,36.3126914 C75.4566506,36.4793462 74.9900384,36.5626736 74.4720469,36.5626736 C73.9540555,36.5626736 73.4850633,36.4793462 73.0650702,36.3126914 C72.6496971,36.1414536 72.295083,35.8984154 72.0010879,35.5835767 C71.7070927,35.268738 71.4807165,34.8891817 71.3220991,34.4447689 C71.1633417,34.0003561 71.084103,33.5003917 71.084103,32.9448757 C71.084103,32.3939427 71.1633417,31.8963393 71.3220991,31.4519265 C71.4807165,31.0029307 71.7070927,30.6210135 72.0010879,30.3061748 C72.295083,29.9913361 72.6496971,29.7482978 73.0650702,29.57706 C73.4850633,29.4058222 73.9540555,29.3201339 74.4720469,29.3201339 Z M74.4720469,35.5974646 C75.1720353,35.5974646 75.6946467,35.3659533 76.040021,34.9030696 C76.3852553,34.435464 76.5580124,33.7850937 76.5580124,32.9518197 C76.5580124,32.1139627 76.3852553,31.4612314 76.040021,30.9936258 C75.6946467,30.5260202 75.1720353,30.2922869 74.4720469,30.2922869 C74.1172928,30.2922869 73.8092979,30.3524215 73.5480622,30.4728296 C73.2866866,30.5932377 73.0673102,30.7668364 72.8900731,30.9936258 C72.717316,31.2204152 72.5866982,31.5005341 72.4980796,31.8338437 C72.414081,32.1625703 72.3720817,32.5351827 72.3720817,32.9518197 C72.3720817,33.3684567 72.414081,33.741069 72.4980796,34.0697956 C72.5866982,34.3985222 72.717316,34.6762802 72.8900731,34.9030696 C73.0673102,35.125276 73.2866866,35.2965138 73.5480622,35.4169219 C73.8092979,35.53733 74.1172928,35.5974646 74.4720469,35.5974646 Z M84.372123,36.4654583 C84.194746,36.4654583 84.0827478,36.37977 84.0361286,36.2085322 L83.9241304,35.3544263 C83.6207555,35.7200947 83.2731412,36.0141016 82.8811477,36.236308 C82.4937741,36.4539313 82.0481615,36.5626736 81.5441698,36.5626736 C81.1381766,36.5626736 80.7695627,36.4862902 80.4381882,36.3335233 C80.1068136,36.1761733 79.8245783,35.947023 79.5912022,35.6460722 C79.357826,35.3451214 79.178209,34.9701481 79.0522111,34.5211523 C78.9262132,34.0721565 78.8632142,33.5559433 78.8632142,32.9726515 C78.8632142,32.4542162 78.9332131,31.9727227 79.0732108,31.5283099 C79.2132084,31.0793142 79.4138251,30.690453 79.6752008,30.3617264 C79.9411964,30.0329998 80.2631911,29.7760736 80.6411848,29.5909479 C81.0191785,29.4011003 81.4485514,29.306246 81.9291635,29.306246 C82.3631563,29.306246 82.7341501,29.3802685 83.042145,29.5284524 C83.3501399,29.6719144 83.6255154,29.8756499 83.8681314,30.13952 L83.8681314,26.2370202 L85.1141107,26.2370202 L85.1141107,36.4654583 L84.372123,36.4654583 Z M81.957163,35.5627448 C82.3631563,35.5627448 82.7177704,35.4701125 83.0211454,35.2849868 C83.3291403,35.0998611 83.6115156,34.8382131 83.8681314,34.5003205 L83.8681314,31.0977851 C83.6395151,30.7922513 83.3875193,30.5793498 83.1121439,30.4589417 C82.8415284,30.3339506 82.5405333,30.271455 82.2091588,30.271455 C81.5465498,30.271455 81.0377982,30.5051884 80.6831841,30.972794 C80.32857,31.4403995 80.1511929,32.1070187 80.1511929,32.9726515 C80.1511929,33.4309522 80.1908123,33.8243964 80.2701909,34.153123 C80.3495696,34.4771277 80.4661877,34.7457197 80.6201851,34.9586212 C80.7741826,35.1669397 80.9631795,35.3197066 81.1871758,35.4169219 C81.411172,35.5141372 81.6677878,35.5627448 81.957163,35.5627448 Z M91.2943084,29.4312371 L91.2943084,36.4654583 L90.048329,36.4654583 L90.048329,29.4312371 L91.2943084,29.4312371 Z M91.5743038,27.223061 C91.5743038,27.3434691 91.5486842,27.4567944 91.497305,27.5633146 C91.4506858,27.6651129 91.3853069,27.7577452 91.3013083,27.8410726 C91.2220696,27.919817 91.1286911,27.9823125 91.0213129,28.0285592 C90.9140747,28.0748059 90.7996966,28.0979987 90.6783186,28.0979987 C90.5570806,28.0979987 90.4427025,28.0748059 90.3353243,28.0285592 C90.232706,27.9823125 90.1393275,27.919817 90.0553289,27.8410726 C89.9760902,27.7577452 89.9130913,27.6651129 89.866332,27.5633146 C89.8197128,27.4567944 89.7963332,27.3434691 89.7963332,27.223061 C89.7963332,27.1026529 89.8197128,26.9893277 89.866332,26.8828075 C89.9130913,26.7717043 89.9760902,26.6768499 90.0553289,26.5981055 C90.1393275,26.5147781 90.232706,26.4499217 90.3353243,26.403675 C90.4427025,26.3574282 90.5570806,26.3342355 90.6783186,26.3342355 C90.7996966,26.3342355 90.9140747,26.3574282 91.0213129,26.403675 C91.1286911,26.4499217 91.2220696,26.5147781 91.3013083,26.5981055 C91.3853069,26.6768499 91.4506858,26.7717043 91.497305,26.8828075 C91.5486842,26.9893277 91.5743038,27.1026529 91.5743038,27.223061 Z M98.4812294,36.4654583 C98.3039923,36.4654583 98.1919942,36.37977 98.145235,36.2085322 L98.0332368,35.3544263 C97.7300018,35.7200947 97.3822476,36.0141016 96.9902541,36.236308 C96.6030205,36.4539313 96.1572679,36.5626736 95.6532762,36.5626736 C95.247283,36.5626736 94.8786691,36.4862902 94.5472945,36.3335233 C94.21606,36.1761733 93.9336847,35.947023 93.7003086,35.6460722 C93.4670724,35.3451214 93.2873154,34.9701481 93.1613175,34.5211523 C93.0353196,34.0721565 92.9723206,33.5559433 92.9723206,32.9726515 C92.9723206,32.4542162 93.0423195,31.9727227 93.1823171,31.5283099 C93.3223148,31.0793142 93.5230715,30.690453 93.7843072,30.3617264 C94.0503028,30.0329998 94.3722974,29.7760736 94.7502912,29.5909479 C95.1282849,29.4011003 95.5576578,29.306246 96.0382699,29.306246 C96.4722627,29.306246 96.8432565,29.3802685 97.1512514,29.5284524 C97.4592463,29.6719144 97.7346218,29.8756499 97.9772378,30.13952 L97.9772378,26.2370202 L99.2232171,26.2370202 L99.2232171,36.4654583 L98.4812294,36.4654583 Z M96.0662694,35.5627448 C96.4722627,35.5627448 96.8270168,35.4701125 97.1302518,35.2849868 C97.4382467,35.0998611 97.720622,34.8382131 97.9772378,34.5003205 L97.9772378,31.0977851 C97.7486215,30.7922513 97.4966257,30.5793498 97.2212503,30.4589417 C96.9506348,30.3339506 96.6496397,30.271455 96.3182652,30.271455 C95.6556562,30.271455 95.1470446,30.5051884 94.7922905,30.972794 C94.4376764,31.4403995 94.2602993,32.1070187 94.2602993,32.9726515 C94.2602993,33.4309522 94.3000586,33.8243964 94.3792973,34.153123 C94.458676,34.4771277 94.5752941,34.7457197 94.7292915,34.9586212 C94.883289,35.1669397 95.0722859,35.3197066 95.2962821,35.4169219 C95.5202784,35.5141372 95.7770342,35.5627448 96.0662694,35.5627448 Z M104.117536,29.3201339 C104.542149,29.3201339 104.934143,29.3919343 105.293517,29.5353963 C105.652751,29.6742753 105.963126,29.8780108 106.224501,30.1464639 C106.485737,30.410334 106.688734,30.7390606 106.833491,31.1325048 C106.982729,31.521366 107.057487,31.9657788 107.057487,32.4657432 C107.057487,32.6601738 107.036488,32.7897479 106.994488,32.8546044 C106.952489,32.9194609 106.87311,32.9518197 106.756492,32.9518197 L102.038571,32.9518197 C102.04781,33.3962325 102.108569,33.7827327 102.220567,34.1114593 C102.332566,34.4401859 102.486563,34.7155829 102.68256,34.9377893 C102.878557,35.1554127 103.111793,35.3197066 103.382548,35.4308098 C103.653164,35.53733 103.956539,35.5905206 104.292533,35.5905206 C104.605148,35.5905206 104.873524,35.5558009 105.09752,35.4863614 C105.326136,35.4123389 105.522133,35.3335945 105.68551,35.2502671 C105.848747,35.1669397 105.984125,35.0905562 106.091503,35.0211167 C106.203502,34.9470942 106.29912,34.9100135 106.378499,34.9100135 C106.481117,34.9100135 106.560496,34.9493163 106.616495,35.0280607 L106.966489,35.4794174 C106.812491,35.6645431 106.628115,35.8266149 106.413498,35.9654939 C106.198742,36.0997899 105.967745,36.2108931 105.72051,36.2988035 C105.477754,36.3867139 105.225758,36.4515704 104.964522,36.4932341 C104.703146,36.5394808 104.444151,36.5626736 104.187535,36.5626736 C103.697543,36.5626736 103.244791,36.4817071 102.829557,36.3196354 C102.418804,36.1529806 102.06181,35.9123033 101.758575,35.5974646 C101.45982,35.2780429 101.226584,34.8845987 101.058587,34.4169931 C100.89059,33.9493875 100.806591,33.4124813 100.806591,32.8059967 C100.806591,32.3153372 100.88121,31.8570365 101.030587,31.4310947 C101.184585,31.0051528 101.403821,30.6371234 101.688576,30.3270066 C101.973192,30.0121679 102.320806,29.7669076 102.731559,29.5909479 C103.142172,29.4104052 103.604165,29.3201339 104.117536,29.3201339 Z M104.145536,30.2297913 C103.543546,30.2297913 103.069793,30.4033901 102.724559,30.7505876 C102.379185,31.0932021 102.164568,31.5699736 102.08057,32.1810412 L105.937506,32.1810412 C105.937506,31.8939783 105.897747,31.6324692 105.818508,31.3963749 C105.739129,31.1556976 105.622511,30.9496012 105.468514,30.7783634 C105.314516,30.6024037 105.125519,30.4682466 104.901523,30.3756143 C104.682147,30.278399 104.430151,30.2297913 104.145536,30.2297913 Z M113.860115,36.4654583 L113.307124,36.4654583 C113.185746,36.4654583 113.087748,36.4469874 113.013129,36.4099067 C112.93851,36.372826 112.889511,36.2942205 112.866131,36.1738124 L112.726134,35.5210811 C112.539517,35.6877359 112.35752,35.8381419 112.180143,35.9724379 C112.002766,36.102012 111.816149,36.2131152 111.620152,36.3057475 C111.424155,36.3936579 111.214159,36.4608753 110.990162,36.507122 C110.770786,36.5533687 110.52579,36.5765615 110.255174,36.5765615 C109.979799,36.5765615 109.720803,36.5394808 109.478187,36.4654583 C109.240191,36.3867139 109.032575,36.2710277 108.855198,36.1182608 C108.677821,35.9654939 108.535583,35.7734243 108.428205,35.541913 C108.325586,35.3058187 108.274207,35.0280607 108.274207,34.708639 C108.274207,34.430881 108.351206,34.16465 108.505203,33.9100848 C108.659201,33.6507977 108.906577,33.4216473 109.247191,33.2226337 C109.592565,33.0236201 110.042798,32.8615483 110.598169,32.7365572 C111.15354,32.6069831 111.832528,32.5328217 112.635135,32.5143508 L112.635135,31.9657788 C112.635135,31.4195677 112.516137,31.0075137 112.278141,30.7297557 C112.044765,30.4474147 111.697151,30.3061748 111.235158,30.3061748 C110.931783,30.3061748 110.675168,30.3454775 110.465171,30.4242219 C110.259794,30.4982444 110.080177,30.5839328 109.92618,30.6811481 C109.776802,30.7737804 109.646185,30.8593298 109.534186,30.9380742 C109.426808,31.0120967 109.31957,31.0491774 109.212192,31.0491774 C109.128193,31.0491774 109.053574,31.0283456 108.988195,30.9866819 C108.927576,30.9404352 108.878577,30.8848836 108.841198,30.8200271 L108.617202,30.4242219 C109.009195,30.0492486 109.431568,29.7691297 109.884181,29.584004 C110.336793,29.3988783 110.838545,29.306246 111.389156,29.306246 C111.785769,29.306246 112.138143,29.3711025 112.446138,29.5006766 C112.754133,29.6302507 113.013129,29.8107934 113.223125,30.0423047 C113.433122,30.273816 113.591739,30.553796 113.699117,30.8825226 C113.806496,31.2112492 113.860115,31.5723346 113.860115,31.9657788 L113.860115,36.4654583 Z M110.626168,35.7085678 C110.845545,35.7085678 111.046161,35.6877359 111.228158,35.6460722 C111.410155,35.5998255 111.580533,35.53733 111.73915,35.4585856 C111.902527,35.3752582 112.056525,35.2756819 112.201142,35.1599957 C112.35052,35.0443095 112.495137,34.9123745 112.635135,34.7641906 L112.635135,33.2990172 C112.061145,33.3174881 111.573533,33.3638737 111.172159,33.4378962 C110.770786,33.5073357 110.444171,33.599968 110.192176,33.7156542 C109.94018,33.8313404 109.755803,33.9679973 109.639185,34.1253472 C109.527187,34.2826971 109.471187,34.4586568 109.471187,34.6530874 C109.471187,34.8382131 109.501567,34.9979239 109.562186,35.1322199 C109.622805,35.2665159 109.704564,35.3776191 109.807182,35.4655295 C109.9098,35.5488569 110.031178,35.6113525 110.171176,35.6530162 C110.311174,35.6900969 110.462791,35.7085678 110.626168,35.7085678 Z M119.807636,30.5908767 C119.751777,30.692675 119.665399,30.7436436 119.548781,30.7436436 C119.478782,30.7436436 119.399403,30.7182288 119.310785,30.6672602 C119.222026,30.6162916 119.112408,30.56074 118.98179,30.5006054 C118.855792,30.4357489 118.704035,30.3779752 118.526798,30.3270066 C118.34942,30.271455 118.139424,30.2436792 117.896808,30.2436792 C117.686811,30.2436792 117.497815,30.271455 117.329817,30.3270066 C117.16182,30.3779752 117.017063,30.4496368 116.895825,30.5422691 C116.779066,30.6349014 116.688068,30.7436436 116.622829,30.8686347 C116.56207,30.9890428 116.531831,31.1209779 116.531831,31.2644399 C116.531831,31.4449826 116.58307,31.5953885 116.685828,31.7157966 C116.793066,31.8362047 116.933064,31.9403639 117.105821,32.0282743 C117.278438,32.1161847 117.474435,32.1949291 117.693811,32.2643686 C117.913048,32.3292251 118.137044,32.4008867 118.3658,32.4796311 C118.599036,32.5536536 118.825413,32.636981 119.044789,32.7296133 C119.264025,32.8222456 119.460022,32.9379318 119.632779,33.0768108 C119.804836,33.2156898 119.943434,33.3869276 120.045632,33.5906631 C120.153431,33.7896767 120.20663,34.0304928 120.20663,34.3128338 C120.20663,34.6368385 120.147831,34.9377893 120.031633,35.2155473 C119.915435,35.4887223 119.742397,35.7270387 119.513781,35.9307742 C119.285025,36.1297878 119.00503,36.2872765 118.673795,36.4029628 C118.342421,36.518649 117.959807,36.5765615 117.525814,36.5765615 C117.031062,36.5765615 116.58307,36.4978171 116.181836,36.3404672 C115.780463,36.1783954 115.439849,35.9724379 115.159853,35.7224557 L115.453848,35.2502671 C115.491088,35.1901325 115.535467,35.1437469 115.586846,35.1113881 C115.638085,35.0790293 115.705844,35.0627804 115.789843,35.0627804 C115.873841,35.0627804 115.96246,35.0951392 116.055838,35.1599957 C116.149077,35.2248522 116.261075,35.2965138 116.391833,35.3752582 C116.527071,35.4540026 116.688068,35.5256641 116.874825,35.5905206 C117.066062,35.6553771 117.304058,35.6877359 117.588813,35.6877359 C117.831429,35.6877359 118.043806,35.6575992 118.225802,35.5974646 C118.407799,35.5326081 118.559417,35.4470586 118.680795,35.3405384 C118.802033,35.2340182 118.890791,35.1113881 118.946791,34.9725091 C119.00741,34.8336301 119.037789,34.6854462 119.037789,34.5280963 C119.037789,34.3336657 118.98403,34.1739548 118.876792,34.0489637 C118.774033,33.9193896 118.636416,33.8105085 118.463799,33.7225981 C118.291041,33.6299658 118.092805,33.5513603 117.868808,33.4865038 C117.649432,33.4170643 117.423056,33.3452639 117.18982,33.2712414 C116.961063,33.1972189 116.734827,33.1138915 116.510831,33.0212592 C116.291455,32.9240439 116.095458,32.8036358 115.922841,32.6601738 C115.750083,32.5167118 115.610086,32.3407521 115.502848,32.1324336 C115.400089,31.9195321 115.34885,31.6626059 115.34885,31.3616552 C115.34885,31.0932021 115.404849,30.8362759 115.516847,30.5908767 C115.628845,30.3408945 115.792083,30.1232711 116.006839,29.9381454 C116.221456,29.7482978 116.485071,29.5978919 116.797826,29.4867887 C117.110441,29.3756855 117.467435,29.3201339 117.868808,29.3201339 C118.335421,29.3201339 118.753034,29.3941564 119.121788,29.5423403 C119.495021,29.6858023 119.817436,29.8849548 120.087632,30.13952 L119.807636,30.5908767 Z" id="Shape"></path>
        </g>
    </g>
</svg>