<svg width="55" height="55" viewBox="0 0 55 55" fill="none" xmlns="http://www.w3.org/2000/svg">
<path d="M27.5 55C42.6878 55 55 42.6878 55 27.5C55 12.3122 42.6878 0 27.5 0C12.3122 0 0 12.3122 0 27.5C0 42.6878 12.3122 55 27.5 55Z" fill="#FFD9FF"/>
<path d="M30.8917 30.843C32.8248 29.0448 34.6077 27.0822 36.2214 24.9762C37.3031 25.2855 38.4571 25.1801 39.469 24.6794C38.5637 23.9073 37.7778 22.9977 37.1381 21.982C37.8597 22.2675 38.6353 22.3783 39.405 22.3058C40.1748 22.2333 40.9181 21.9795 41.5774 21.5639C41.5774 21.5639 37.3476 19.1363 36.7452 17.1807C34.506 9.96512 34.6762 9.31775 34.6762 9.31775C35.9857 5.82461 37.0071 1.83246 35.9857 0.524223C34.6762 -1.14817 33.144 1.4818 29.2548 4.1792C29.2548 4.1792 26.9238 1.8999 20.6643 1.8999C17.7635 2.0535 14.9283 2.84446 12.3488 4.21966C10.5679 2.87096 9.41548 1.63016 8.00119 0.793962C5.85357 -0.554738 4.83214 0.672579 5.63095 3.49136C5.95833 4.62427 6.45595 7.11937 6.94048 9.34472C7.29405 10.9362 6.94048 10.572 5.63095 15.4678C5.1858 16.6571 4.6149 17.7924 3.92857 18.8531C2.97576 20.2086 1.58138 21.166 0 21.5505C0.659324 21.966 1.40258 22.2198 2.17234 22.2923C2.94209 22.3648 3.71772 22.254 4.43928 21.9686C3.79962 22.9842 3.01364 23.8938 2.10833 24.666C3.12028 25.1666 4.27424 25.272 5.35595 24.9627C6.44655 27.3681 8.27274 29.3389 10.5548 30.5733C10.5548 30.5733 13.1738 33.7562 20.7167 33.7562C27.5131 33.7562 30.8917 30.843 30.8917 30.843Z" transform="translate(6.99286 10.8664)" fill="#FFE888"/>
<path d="M14.5619 0C14.5619 0 6.92738 7.45831 7.93571 17.614C9.04881 28.7948 20.625 30.7099 20.625 30.7099C17.5729 30.6636 14.5798 29.837 11.9146 28.3045C9.24946 26.7719 6.99573 24.5815 5.35595 21.9299C5.35595 21.9299 3.15595 22.7391 2.10833 21.6332C2.10833 21.6332 4.08571 20.2845 4.43929 18.9358C3.72204 19.2428 2.94294 19.3652 2.16942 19.2924C1.3959 19.2195 0.651279 18.9536 0 18.5177C0.941427 18.2625 1.82325 17.8145 2.59275 17.2004C3.36225 16.5864 4.00364 15.8188 4.47857 14.9436C6.96667 10.6008 7.03214 3.41221 14.5619 0V0Z" transform="translate(7.08453 13.9127)" fill="#EABA5C"/>
<path d="M5.56548 3.47478C5.56548 3.47478 4.04643 2.12608 2.31786 0.777382C1.00833 -0.261117 0.340476 -0.28809 0 0.871792L1.61072 7.80411L3.12976 6.87351L4.33452 4.82348L5.56548 3.47478ZM24.9726 3.47478C24.9726 3.47478 26.4917 2.12608 28.2202 0.777382C29.5298 -0.261117 30.1976 -0.28809 30.5381 0.871792L28.9274 7.87155L27.4607 6.87351L26.256 4.82348L24.9726 3.47478Z" transform="translate(12.5845 12.9869)" fill="#EABA5C"/>
<path d="M5.38214 23.0986C4.29231 23.4148 3.1278 23.3093 2.10833 22.8019C3.01364 22.0297 3.79962 21.1202 4.43929 20.1045C3.71772 20.39 2.94209 20.5007 2.17234 20.4282C1.40259 20.3558 0.659324 20.1019 0 19.6864C0.952864 19.4592 1.84662 19.0221 2.61975 18.4051C3.39288 17.7881 4.02704 17.0059 4.47857 16.1124C5.53929 13.9814 6.94048 9.78696 8.07976 7.65602C10.9869 2.18029 14.7845 0.0223738 20.625 0.0223738C23.2705 -0.131835 25.9021 0.513666 28.1961 1.87949C30.4901 3.2453 32.3465 5.27188 33.5369 7.70997C34.6762 9.84091 36.0774 14.0354 37.1381 16.1663C37.5896 17.0599 38.2238 17.8421 38.9969 18.459C39.7701 19.076 40.6638 19.5132 41.6167 19.7404C40.957 20.1549 40.2138 20.4082 39.4442 20.4807C38.6746 20.5531 37.8991 20.4429 37.1774 20.1585C37.817 21.1741 38.603 22.0837 39.5083 22.8559C38.4964 23.3565 37.3424 23.4619 36.2607 23.1526C36.2607 23.1526 30.9179 31.8787 20.7952 31.8787C10.6726 31.8787 5.38214 23.0986 5.38214 23.0986Z" transform="translate(7.05835 12.744)" stroke="#44392E" stroke-width="0.631" stroke-linecap="round" stroke-linejoin="round"/>
<path d="M23.9833 4.05911L28.2786 0.633412C29.85 -0.620879 31.4476 -0.0274512 30.8976 2.54857C30.4917 4.24793 29.2083 9.81806 29.2083 9.81806M6.81548 3.89727L2.72976 0.72782C1.15833 -0.526471 -0.439284 0.0669574 0.110716 2.64297C0.516668 4.34234 1.8131 9.87201 1.8131 9.87201L6.81548 3.89727Z" transform="translate(12.3167 11.0404)" stroke="#44392E" stroke-width="0.534" stroke-linecap="round" stroke-linejoin="round"/>
<path d="M5.36905 11.0593C8.33429 11.0593 10.7381 8.58362 10.7381 5.52967C10.7381 2.47572 8.33429 0 5.36905 0C2.4038 0 0 2.47572 0 5.52967C0 8.58362 2.4038 11.0593 5.36905 11.0593Z" transform="translate(12.4405 19.4558)" fill="white" stroke="#44392E" stroke-width="0.534" stroke-miterlimit="10"/>
<path d="M3.3 6.79745C5.12254 6.79745 6.6 5.27579 6.6 3.39873C6.6 1.52166 5.12254 0 3.3 0C1.47746 0 0 1.52166 0 3.39873C0 5.27579 1.47746 6.79745 3.3 6.79745Z" transform="translate(14.5357 21.3845)" fill="#44392E" stroke="#F930E7" stroke-width="0.548" stroke-miterlimit="10"/>
<path d="M1.56855 3.137C2.43483 3.137 3.13709 2.43476 3.13709 1.5685C3.13709 0.702241 2.43483 0 1.56855 0C0.702263 0 0 0.702241 0 1.5685C0 2.43476 0.702263 3.137 1.56855 3.137Z" transform="translate(15.6096 22.4608) scale(0.985155 1.01463) rotate(-45.0309)" fill="white"/>
<path d="M5.36905 11.0593C8.33429 11.0593 10.7381 8.58362 10.7381 5.52967C10.7381 2.47572 8.33429 0 5.36905 0C2.4038 0 0 2.47572 0 5.52967C0 8.58362 2.4038 11.0593 5.36905 11.0593Z" transform="translate(32.5679 19.4558)" fill="white" stroke="#44392E" stroke-width="0.534" stroke-miterlimit="10"/>
<path d="M3.3 6.79745C5.12254 6.79745 6.6 5.27579 6.6 3.39873C6.6 1.52166 5.12254 0 3.3 0C1.47746 0 0 1.52166 0 3.39873C0 5.27579 1.47746 6.79745 3.3 6.79745Z" transform="translate(34.6762 21.6407)" fill="#44392E" stroke="#F930E7" stroke-width="0.548" stroke-miterlimit="10"/>
<path d="M1.56854 3.137C2.43483 3.137 3.13709 2.43476 3.13709 1.5685C3.13709 0.702241 2.43483 0 1.56854 0C0.70226 0 0 0.702241 0 1.5685C0 2.43476 0.70226 3.137 1.56854 3.137Z" transform="translate(35.7561 22.7212) scale(0.985155 1.01463) rotate(-45.0309)" fill="white"/>
<path d="M6.06407 1.82075C6.08189 2.70578 5.78375 3.56679 5.22618 4.24048C4.66861 4.91417 3.89038 5.3537 3.03907 5.47573C2.18418 5.35956 1.40113 4.92213 0.840361 4.24749C0.279587 3.57285 -0.0193548 2.70859 0.000972515 1.82075L3.01288 0L6.06407 1.82075Z" transform="translate(24.88 32.7405)" fill="#44392E"/>
<path d="M4.92381 1.08436C4.60591 0.741635 4.22384 0.468843 3.8007 0.282467C3.37756 0.0960909 2.92212 0 2.4619 0C2.00169 0 1.54625 0.0960909 1.12311 0.282467C0.699966 0.468843 0.317901 0.741635 0 1.08436L2.48809 2.20378L4.92381 1.08436Z" transform="translate(25.431 35.6349)" fill="#F930E7"/>
<path d="M0 0.827839C0.275031 0.545065 0.605133 0.325539 0.968543 0.183731C1.33195 0.0419219 1.72042 -0.01895 2.10833 0.00513109C2.77958 -0.0196281 3.43933 0.189444 3.98095 0.59856" transform="translate(25.8107 35.7834)" stroke="#44392E" stroke-width="0.449" stroke-miterlimit="10" stroke-linecap="round"/>
<path d="M0 0H0.445238" transform="translate(27.6964 33.6846)" stroke="white" stroke-width="1.71" stroke-linecap="round" stroke-linejoin="round"/>
<path d="M8.27468 3.83049C7.57403 4.43016 6.71814 4.80527 5.81277 4.90946C4.91041 5.02121 3.99529 4.93386 3.12825 4.6532C2.2259 4.42431 1.39605 3.95981 0.718725 3.3045C0.364883 2.93212 0.119841 2.46477 0.0115812 1.9558C-0.0038604 1.7088 -0.0038604 1.46102 0.0115812 1.21402V0.553153C0.00805234 0.484058 0.0177951 0.414925 0.04025 0.349714C0.062705 0.284502 0.0974303 0.224495 0.142439 0.173129C0.187448 0.121762 0.241855 0.0800452 0.302543 0.0503691C0.363231 0.0206929 0.429009 0.0036386 0.496106 0.000185871C0.632856 -0.00351017 0.765582 0.0480388 0.865913 0.14381C0.966244 0.239582 1.02622 0.371978 1.03301 0.512693V1.17356C1.01277 1.36631 1.01277 1.56075 1.03301 1.7535C1.08499 2.1114 1.2401 2.44499 1.47825 2.71107C2.01615 3.32549 2.69645 3.7895 3.45563 4.05977C4.21874 4.36939 5.0429 4.48568 5.85874 4.39883C6.67458 4.31199 7.45823 4.02457 8.14372 3.56076C8.18185 3.5266 8.23069 3.50779 8.28123 3.50779C8.33176 3.50779 8.38059 3.5266 8.41872 3.56076C8.43146 3.58789 8.4377 3.61777 8.43693 3.64789C8.43616 3.67802 8.4284 3.70751 8.4143 3.73392C8.4002 3.76032 8.38017 3.78287 8.35588 3.79967C8.33159 3.81647 8.30374 3.82704 8.27468 3.83049V3.83049Z" transform="translate(27.4884 30.0429)" fill="#44392E"/>
<path d="M0.258781 3.80333C0.890466 4.32492 1.67535 4.61022 2.48497 4.61256C3.29555 4.63935 4.10269 4.49238 4.85521 4.18097C5.57979 3.91562 6.21888 3.4488 6.70164 2.83227C6.89648 2.55831 7.00194 2.22777 7.00283 1.88818V0.53948C7.00109 0.470399 7.01258 0.401643 7.03665 0.337139C7.06072 0.272635 7.09689 0.213646 7.1431 0.163546C7.18932 0.113446 7.24466 0.0732162 7.30597 0.0451541C7.36729 0.0170919 7.43337 0.00174859 7.50045 0C7.63614 0.00324503 7.76561 0.0593028 7.8628 0.156893C7.95998 0.254484 8.01767 0.386363 8.02426 0.525992V1.87469C7.99061 2.41577 7.78856 2.93127 7.44807 3.34478C6.82721 4.09175 6.0079 4.63554 5.09092 4.90927C4.24692 5.19217 3.35541 5.29317 2.47188 5.20598C1.56521 5.12843 0.708879 4.74436 0.0361621 4.11354C0.0104144 4.07784 -0.00227278 4.03392 0.000334824 3.98954C0.00294243 3.94515 0.0206778 3.90313 0.0504166 3.87089C0.0801553 3.83865 0.119989 3.81825 0.162898 3.8133C0.205806 3.80834 0.249037 3.81914 0.284972 3.84379L0.258781 3.80333Z" transform="translate(20.4186 29.7869)" fill="#44392E"/>
<path d="M6.05 0C5.97979 0.776258 5.63074 1.49756 5.07121 2.02265C4.51168 2.54774 3.78197 2.83878 3.025 2.83878C2.26803 2.83878 1.53832 2.54774 0.978789 2.02265C0.419256 1.49756 0.0702074 0.776258 0 0" transform="translate(24.894 34.9929)" stroke="#44392E" stroke-width="0.679" stroke-miterlimit="10" stroke-linecap="round"/>
<path d="M12.3357 1.59285C12.2966 1.47993 12.2894 1.35791 12.3149 1.24094C12.3403 1.12396 12.3975 1.01683 12.4798 0.931982C12.8138 0.615411 13.2061 0.371117 13.6335 0.213582C14.0609 0.0560458 14.5146 -0.0115273 14.9679 0.0148656C15.4002 -0.0292762 15.8367 0.0251774 16.2464 0.174357C16.656 0.323537 17.0288 0.563782 17.3381 0.878033C17.4148 0.96921 17.4653 1.08067 17.4838 1.19982C17.5023 1.31898 17.4882 1.44109 17.4429 1.55238C17.3829 1.69975 17.2832 1.82635 17.1556 1.91718C17.0279 2.008 16.8777 2.05927 16.7226 2.06489C16.4686 2.0567 16.2164 2.11264 15.9882 2.22783C15.7599 2.34302 15.5625 2.51396 15.4131 2.72575L15.3345 2.82016C15.272 2.89005 15.1961 2.94582 15.1115 2.98397C15.027 3.02212 14.9357 3.04182 14.8435 3.04182C14.7512 3.04182 14.6599 3.02212 14.5754 2.98397C14.4909 2.94582 14.4149 2.89005 14.3524 2.82016C14.3524 2.82016 14.0643 2.29417 13.0429 2.21325C12.8874 2.19499 12.7399 2.13225 12.6173 2.03214C12.4946 1.93203 12.4016 1.79854 12.3488 1.64679L12.3357 1.59285ZM10.8821 2.7797C8.90041 2.31804 6.83765 2.37834 4.88452 2.95503C2.91513 3.57475 1.19861 4.84497 0 6.56955C1.122 4.74062 2.79696 3.34255 4.76667 2.59088C6.76753 1.87588 8.90989 1.68583 11 2.03792C11.0962 2.05454 11.1824 2.10862 11.241 2.18897C11.2995 2.26931 11.3257 2.36976 11.3143 2.4695C11.308 2.5189 11.292 2.56646 11.2672 2.60922C11.2424 2.65199 11.2093 2.68906 11.17 2.71813C11.1308 2.74721 11.0861 2.76768 11.0388 2.77827C10.9916 2.78886 10.9427 2.78935 10.8952 2.7797H10.8821Z" transform="translate(13.0167 28.7066)" fill="#44392E"/>
<path d="M6.01071 1.83099C4.66174 1.67676 3.29815 1.92487 2.08214 2.5458C1.50999 2.93782 1.02744 3.45327 0.66791 4.05643C0.308384 4.65959 0.0804839 5.33605 0 6.03893C0.0642007 5.31327 0.241052 4.60291 0.523809 3.93496C0.815158 3.26444 1.26546 2.68009 1.83333 2.2356C3.07727 1.45232 4.51382 1.05435 5.97143 1.0892C6.01829 1.08548 6.0654 1.09179 6.10978 1.10774C6.15416 1.12368 6.19485 1.14892 6.2293 1.18186C6.26374 1.2148 6.29119 1.25473 6.30992 1.29914C6.32864 1.34354 6.33823 1.39145 6.33809 1.43986C6.34173 1.53782 6.30824 1.6334 6.24471 1.70638C6.18117 1.77937 6.09256 1.82406 5.99762 1.83099H6.01071ZM13.8155 0.172085C15.9056 -0.179998 18.0479 0.0100535 20.0488 0.725052C22.0205 1.47317 23.6964 2.87207 24.8155 4.70372C23.6225 2.97333 21.9039 1.70154 19.931 1.0892C17.9823 0.51249 15.9238 0.452181 13.9464 0.913872C13.8966 0.934353 13.843 0.943313 13.7894 0.940121C13.7358 0.93693 13.6836 0.921663 13.6363 0.8954C13.5891 0.869136 13.5481 0.832517 13.5161 0.788126C13.4841 0.743735 13.462 0.692654 13.4513 0.638492C13.4406 0.58433 13.4415 0.528408 13.4541 0.474671C13.4667 0.420935 13.4905 0.370693 13.524 0.327497C13.5575 0.284301 13.5998 0.249202 13.6479 0.224679C13.696 0.200156 13.7487 0.186807 13.8024 0.185573L13.8155 0.172085Z" transform="translate(17.9536 30.5724)" fill="#44392E"/>
<path d="M0.406194 0.040462C1.86363 0.00713214 3.29976 0.404993 4.54429 1.18686C5.11666 1.62659 5.56798 2.21227 5.85381 2.88622C6.13657 3.55417 6.31342 4.26453 6.37762 4.99019C6.29714 4.28731 6.06924 3.61085 5.70971 3.00769C5.35019 2.40452 4.86763 1.88908 4.29548 1.49706C3.08018 0.873934 1.71595 0.62571 0.36691 0.782246C0.31703 0.780505 0.26797 0.768656 0.222539 0.747374C0.177109 0.726092 0.136198 0.695796 0.102144 0.658218C0.0680906 0.620641 0.0415634 0.576519 0.0240783 0.528374C0.00659323 0.48023 -0.00150706 0.429008 0.000242576 0.377637C-0.00151871 0.328694 0.00632565 0.279888 0.023304 0.234139C0.0402824 0.188389 0.0660456 0.146638 0.0990548 0.111382C0.132064 0.0761258 0.17164 0.0480907 0.215413 0.0289529C0.259187 0.00981512 0.30626 -3.35182e-05 0.353815 8.5704e-08L0.406194 0.040462Z" transform="translate(31.4283 31.6211)" fill="#44392E"/>
</svg>
