<svg xmlns="http://www.w3.org/2000/svg" xmlns:xlink="http://www.w3.org/1999/xlink" preserveAspectRatio="xMidYMid" width="100" height="50" viewBox="0 0 100 50">
  <defs>
    <style>
      .cls-1 {
        fill: #fff;
        fill-rule: evenodd;
      }
    </style>
  </defs>
  <g>
    <path d="M64.959,18.044 C62.417,18.044 60.357,16.020 60.357,13.522 C60.357,11.025 62.417,9.000 64.959,9.000 C67.500,9.000 69.561,11.025 69.561,13.522 C69.561,16.020 67.500,18.044 64.959,18.044 ZM57.391,29.509 C54.815,29.509 52.727,27.488 52.727,24.994 C52.727,22.501 54.815,20.480 57.391,20.480 C59.967,20.480 62.055,22.501 62.055,24.994 C62.055,27.488 59.967,29.509 57.391,29.509 ZM50.543,18.058 C47.967,18.058 45.878,16.033 45.878,13.535 C45.878,11.036 47.967,9.011 50.543,9.011 C53.119,9.011 55.207,11.036 55.207,13.535 C55.207,16.033 53.119,18.058 50.543,18.058 ZM42.998,29.509 C40.433,29.509 38.355,27.488 38.355,24.994 C38.355,22.501 40.433,20.480 42.998,20.480 C45.562,20.480 47.641,22.501 47.641,24.994 C47.641,27.488 45.562,29.509 42.998,29.509 ZM36.070,18.044 C33.512,18.044 31.439,16.020 31.439,13.522 C31.439,11.025 33.512,9.000 36.070,9.000 C38.627,9.000 40.701,11.025 40.701,13.522 C40.701,16.020 38.627,18.044 36.070,18.044 Z" class="cls-1"/>
    <path d="M5.000,50.000 C5.000,47.335 7.202,45.176 9.919,45.176 L91.081,45.176 C93.798,45.176 96.000,47.335 96.000,50.000 " class="cls-1"/>
  </g>
</svg>
